<svg width="79" height="17" viewBox="0 0 79 17" fill="none" xmlns="http://www.w3.org/2000/svg">
<path d="M9.68 16L9.02 12.94H4.66L3.98 16H0L4.38 1.66H9.2L13.64 16H9.68ZM7.52 7.22C7.45333 6.92667 7.37333 6.60667 7.28 6.26C7.2 5.9 7.12 5.53333 7.04 5.16C6.96 4.77333 6.88667 4.4 6.82 4.04C6.76667 4.4 6.7 4.77333 6.62 5.16C6.54 5.53333 6.46 5.9 6.38 6.26C6.31333 6.60667 6.24 6.92667 6.16 7.22L5.4 10.1H8.28L7.52 7.22ZM20.9528 4.82C21.1528 4.82 21.3595 4.83333 21.5728 4.86C21.7861 4.87333 21.9461 4.89333 22.0528 4.92L21.7328 8.08C21.6128 8.05333 21.4595 8.03333 21.2728 8.02C21.0861 7.99333 20.8328 7.98 20.5128 7.98C20.2861 7.98 20.0395 8.02 19.7728 8.1C19.5195 8.16667 19.2795 8.29333 19.0528 8.48C18.8261 8.65333 18.6395 8.90667 18.4928 9.24C18.3461 9.56 18.2728 9.98 18.2728 10.5V16H14.6728V5.02H17.3528L17.9128 6.82H18.0728C18.2728 6.44667 18.5195 6.11333 18.8128 5.82C19.1061 5.51333 19.4328 5.27333 19.7928 5.1C20.1661 4.91333 20.5528 4.82 20.9528 4.82ZM26.9009 7.22C26.9009 7.64667 26.8809 8.1 26.8409 8.58C26.8143 9.04667 26.7676 9.5 26.7009 9.94H26.7809C26.8476 9.76667 26.9343 9.58667 27.0409 9.4C27.1609 9.21333 27.2943 9.02667 27.4409 8.84C27.5876 8.64 27.7343 8.44 27.8809 8.24L30.2409 5.02H34.2209L30.6009 9.74L34.4409 16H30.3609L28.0609 11.8L26.9009 12.78V16H23.3009V0.799999H26.9009V7.22ZM41.7638 4.82C41.9638 4.82 42.1704 4.83333 42.3838 4.86C42.5971 4.87333 42.7571 4.89333 42.8638 4.92L42.5438 8.08C42.4238 8.05333 42.2704 8.03333 42.0838 8.02C41.8971 7.99333 41.6438 7.98 41.3238 7.98C41.0971 7.98 40.8504 8.02 40.5838 8.1C40.3304 8.16667 40.0904 8.29333 39.8638 8.48C39.6371 8.65333 39.4504 8.90667 39.3038 9.24C39.1571 9.56 39.0838 9.98 39.0838 10.5V16H35.4838V5.02H38.1638L38.7238 6.82H38.8838C39.0838 6.44667 39.3304 6.11333 39.6238 5.82C39.9171 5.51333 40.2438 5.27333 40.6038 5.1C40.9771 4.91333 41.3638 4.82 41.7638 4.82ZM47.7119 5.02V16H44.1319V5.02H47.7119ZM45.9519 0.66C46.4585 0.66 46.8985 0.766666 47.2719 0.979999C47.6452 1.19333 47.8319 1.60667 47.8319 2.22C47.8319 2.82 47.6452 3.23333 47.2719 3.46C46.8985 3.67333 46.4585 3.78 45.9519 3.78C45.4185 3.78 44.9652 3.67333 44.5919 3.46C44.2185 3.23333 44.0319 2.82 44.0319 2.22C44.0319 1.60667 44.2185 1.19333 44.5919 0.979999C44.9652 0.766666 45.4185 0.66 45.9519 0.66ZM60.1256 5.02V16H57.4056L56.9656 14.6H56.7456C56.5456 14.9733 56.279 15.28 55.9456 15.52C55.6123 15.7467 55.2456 15.9133 54.8456 16.02C54.459 16.14 54.0523 16.2 53.6256 16.2C52.9456 16.2 52.3323 16.06 51.7856 15.78C51.239 15.5 50.799 15.0667 50.4656 14.48C50.1456 13.88 49.9856 13.1133 49.9856 12.18V5.02H53.5856V11.24C53.5856 11.9867 53.679 12.5533 53.8656 12.94C54.0523 13.3267 54.3723 13.52 54.8256 13.52C55.279 13.52 55.6256 13.3867 55.8656 13.12C56.119 12.8533 56.2923 12.46 56.3856 11.94C56.479 11.4067 56.5256 10.7667 56.5256 10.02V5.02H60.1256ZM75.0833 4.82C76.2699 4.82 77.1766 5.14 77.8033 5.78C78.4299 6.40667 78.7433 7.42667 78.7433 8.84V16H75.1833V9.78C75.1833 8.98 75.0766 8.4 74.8633 8.04C74.6499 7.66667 74.3366 7.48 73.9233 7.48C73.3366 7.48 72.9299 7.76 72.7033 8.32C72.4766 8.86667 72.3633 9.65333 72.3633 10.68V16H68.7833V9.78C68.7833 9.26 68.7366 8.83333 68.6433 8.5C68.5633 8.15333 68.4299 7.9 68.2433 7.74C68.0699 7.56667 67.8433 7.48 67.5633 7.48C67.1499 7.48 66.8299 7.62 66.6033 7.9C66.3766 8.16667 66.2166 8.56 66.1233 9.08C66.0433 9.6 66.0033 10.24 66.0033 11V16H62.4033V5.02H65.1233L65.6433 6.4H65.7433C65.9299 6.05333 66.1633 5.76667 66.4433 5.54C66.7366 5.3 67.0833 5.12 67.4833 5C67.8833 4.88 68.3433 4.82 68.8633 4.82C69.6233 4.82 70.2499 4.95333 70.7433 5.22C71.2499 5.48667 71.6499 5.87333 71.9433 6.38H72.0633C72.3966 5.86 72.8233 5.47333 73.3433 5.22C73.8633 4.95333 74.4433 4.82 75.0833 4.82Z" fill="#202632"/>
</svg>
