<svg width="425" height="55" viewBox="0 0 425 55" fill="none" xmlns="http://www.w3.org/2000/svg">
<path d="M15.0041 0.935999H18.1721V23.112H15.0041V0.935999ZM6.29213 2.496C9.62813 2.496 12.1001 5.52 12.1001 10.368C12.1001 15.24 9.62813 18.288 6.29213 18.288C2.95613 18.288 0.484125 15.24 0.484125 10.368C0.484125 5.52 2.95613 2.496 6.29213 2.496ZM6.29213 5.352C4.66013 5.352 3.53213 7.104 3.53213 10.368C3.53213 13.656 4.66013 15.408 6.29213 15.408C7.92413 15.408 9.05213 13.656 9.05213 10.368C9.05213 7.104 7.92413 5.352 6.29213 5.352ZM28.9463 5.736V6.816C28.9463 10.512 30.0263 14.232 33.2183 16.104L31.3703 18.408C29.4263 17.232 28.1543 15.336 27.4343 13.008C26.6663 15.528 25.3703 17.688 23.3783 18.936L21.5063 16.608C24.7223 14.568 25.8743 10.608 25.8743 6.816V5.736H22.3223V3.168H32.1623V5.736H28.9463ZM33.4343 8.496V1.32H36.3863V22.056H33.4343V11.064H30.6263V8.496H33.4343ZM37.8983 0.935999H40.8983V23.04H37.8983V0.935999ZM61.8244 6.936V9.456H46.4884V1.752H49.6564V6.936H61.8244ZM49.4644 16.008V20.064H61.9444V22.584H46.2724V16.008H49.4644ZM44.0164 11.712H64.0324V14.256H44.0164V11.712ZM74.2556 18.432V15.912H89.6156V23.088H86.4476V18.432H74.2556ZM77.7356 5.856V7.584H86.3516V5.856H77.7356ZM83.5916 11.88H92.0396V14.4H72.0476V11.88H80.4236V10.056H74.5916V1.536H77.7356V3.48H86.3516V1.536H89.4956V10.056H83.5916V11.88ZM107.278 10.416L105.814 12.888C103.366 12.168 101.662 10.704 100.654 8.808C99.6698 10.92 97.8938 12.552 95.2778 13.344L93.7658 10.896C97.3178 9.816 98.9018 7.224 98.9978 4.68H94.6058V2.16H106.534V4.68H102.214C102.334 7.032 103.846 9.432 107.278 10.416ZM108.382 20.304V18.432H100.222V20.304H108.382ZM108.382 15.984V14.04H111.526V22.8H97.1018V14.04H100.222V15.984H108.382ZM114.454 5.64V8.256H111.526V13.176H108.358V0.983999H111.526V5.64H114.454ZM122.588 15.96C124.076 15.96 125.156 14.952 125.156 13.248C125.156 11.592 124.076 10.56 122.588 10.56C121.1 10.56 119.996 11.592 119.996 13.272C119.996 14.952 121.1 15.96 122.588 15.96ZM122.588 7.992C125.78 7.992 128.156 10.176 128.156 13.248C128.156 16.368 125.78 18.552 122.588 18.552C119.372 18.552 116.972 16.368 116.972 13.248C116.972 10.176 119.372 7.992 122.588 7.992ZM124.148 1.344V4.224H128.948V6.744H116.084V4.224H120.98V1.344H124.148ZM136.724 9.6V12.216H133.556V23.064H130.388V0.959999H133.556V9.6H136.724ZM149.634 9.408V1.44H152.586V22.08H149.634V11.952H146.178C144.93 14.472 142.914 16.656 139.794 18.48L137.994 16.248C142.41 13.608 144.354 10.416 144.738 6.096H139.218V3.576H147.882C147.882 5.664 147.69 7.608 147.162 9.408H149.634ZM154.29 0.935999H157.29V23.04H154.29V0.935999ZM167.609 2.232H177.689C177.689 8.064 174.089 12.048 167.657 13.824L166.409 11.376C171.161 10.08 173.825 7.68 174.329 4.752H167.609V2.232ZM173.369 16.704V20.328H181.673V16.704H173.369ZM170.249 22.8V14.208H184.793V22.8H170.249ZM181.625 0.983999H184.793V13.296H181.625V8.76H177.809V6.192H181.625V0.983999ZM199.527 10.848L197.847 13.248C195.999 12.48 194.727 11.16 193.959 9.528C193.143 11.4 191.799 12.96 189.759 13.848L188.079 11.376C191.175 10.008 192.375 7.272 192.375 4.752V2.184H195.423V4.752C195.423 7.2 196.599 9.624 199.527 10.848ZM192.015 17.856V15.36H207.231V23.088H204.063V17.856H192.015ZM204.231 0.959999H207.231V14.376H204.231V8.88H202.503V14.256H199.551V1.296H202.503V6.336H204.231V0.959999ZM229.406 3.264V5.736H211.43V3.264H218.87V0.935999H222.038V3.264H229.406ZM224.75 10.416C224.75 9.384 223.334 8.952 220.454 8.952C217.574 8.952 216.182 9.384 216.182 10.416C216.182 11.4 217.574 11.856 220.454 11.856C223.334 11.856 224.75 11.4 224.75 10.416ZM212.894 10.416C212.894 7.968 215.726 6.6 220.454 6.6C225.182 6.6 228.038 7.968 228.038 10.416C228.038 12.84 225.182 14.208 220.454 14.208C215.726 14.208 212.894 12.84 212.894 10.416ZM230.486 15.264V17.808H222.038V23.088H218.87V17.808H210.47V15.264H230.486ZM258.493 11.64V14.184H249.997V23.064H246.781V14.184H238.525V11.64H252.445C252.997 8.832 253.045 6.672 253.045 4.776H240.805V2.232H256.141V4.224C256.141 6.288 256.141 8.544 255.589 11.64H258.493ZM264.155 5.712V15.072H266.987V5.712H264.155ZM261.203 17.544V3.216H269.915V17.544H261.203ZM276.539 0.935999H279.539V23.04H276.539V11.928H274.691V22.056H271.739V1.296H274.691V9.384H276.539V0.935999ZM296.985 7.632V4.368H288.225V7.632H296.985ZM300.105 1.896V10.128H285.105V1.896H300.105ZM288.129 16.272V20.16H300.441V22.68H284.961V16.272H288.129ZM282.633 11.88H302.649V14.376H294.513V18.144H291.345V14.376H282.633V11.88ZM311.839 2.424C315.295 2.424 317.935 4.704 317.935 7.872C317.935 11.064 315.295 13.32 311.839 13.32C308.383 13.32 305.767 11.064 305.767 7.872C305.767 4.704 308.383 2.424 311.839 2.424ZM311.839 5.136C310.135 5.136 308.839 6.144 308.839 7.872C308.839 9.6 310.135 10.608 311.839 10.608C313.543 10.608 314.839 9.6 314.839 7.872C314.839 6.144 313.543 5.136 311.839 5.136ZM319.999 0.935999H323.167V23.112H319.999V0.935999ZM305.239 18.624L304.831 16.056C308.719 16.056 314.143 16.032 318.799 15.336L318.991 17.616C314.239 18.576 309.055 18.624 305.239 18.624ZM339.15 15.96C340.638 15.96 341.718 14.952 341.718 13.248C341.718 11.592 340.638 10.56 339.15 10.56C337.662 10.56 336.558 11.592 336.558 13.272C336.558 14.952 337.662 15.96 339.15 15.96ZM339.15 7.992C342.342 7.992 344.718 10.176 344.718 13.248C344.718 16.368 342.342 18.552 339.15 18.552C335.934 18.552 333.534 16.368 333.534 13.248C333.534 10.176 335.934 7.992 339.15 7.992ZM340.71 1.344V4.224H345.51V6.744H332.646V4.224H337.542V1.344H340.71ZM353.286 9.6V12.216H350.118V23.064H346.95V0.959999H350.118V9.6H353.286ZM363.389 5.688V6.912C363.389 10.512 365.165 14.328 368.861 15.864L367.133 18.36C364.565 17.256 362.813 15.096 361.829 12.432C360.845 15.312 359.069 17.736 356.477 18.912L354.677 16.392C358.373 14.736 360.173 10.68 360.173 6.912V5.688H355.565V3.072H367.949V5.688H363.389ZM369.989 0.959999H373.157V23.064H369.989V0.959999ZM390.94 8.688V4.464H386.62V8.688H390.94ZM394.06 1.992V11.184H383.524V1.992H394.06ZM388.852 18.912V20.352H400.924V22.8H385.708V16.632H397.156V15.312H385.684V12.864H400.276V18.912H388.852ZM400.276 5.208H403.18V7.8H400.276V12H397.108V0.959999H400.276V5.208ZM422.162 15.552L418.994 15.192C419.834 11.016 419.882 7.944 419.882 5.376H406.994V2.856H423.05V4.968C423.05 7.728 423.05 10.848 422.162 15.552ZM415.202 17.856H424.97V20.4H404.978V17.856H412.034V10.248H415.202V17.856ZM77.3897 44.408C79.0217 44.408 80.1497 42.656 80.1497 39.368C80.1497 36.104 79.0217 34.352 77.3897 34.352C75.7337 34.352 74.6297 36.104 74.6297 39.368C74.6297 42.656 75.7337 44.408 77.3897 44.408ZM77.3897 31.496C80.7257 31.496 83.1977 34.52 83.1977 39.368C83.1977 44.24 80.7257 47.288 77.3897 47.288C74.0297 47.288 71.5817 44.24 71.5817 39.368C71.5817 34.52 74.0297 31.496 77.3897 31.496ZM91.9817 38.288V40.904H88.7657V52.064H85.5977V29.96H88.7657V38.288H91.9817ZM95.1718 38.408L108.348 37.976C108.396 36.752 108.396 35.6 108.396 34.472V34.424H95.7958V31.904H111.516V34.472C111.516 37.688 111.516 40.736 110.484 45.536L107.364 45.224C107.796 43.424 108.036 41.816 108.18 40.328L95.5558 40.976L95.1718 38.408ZM93.5638 46.856H113.532V49.448H93.5638V46.856ZM120.034 40.376V44.36C123.394 44.336 126.178 44.168 129.298 43.64L129.634 46.208C126.034 46.832 122.794 46.976 118.786 46.976H116.794V37.88H123.97V34.352H116.77V31.832H127.21V40.376H120.034ZM130.834 29.936H134.002V52.112H130.834V29.936ZM147.68 32.696C144.68 32.696 142.952 33.296 142.952 34.544C142.952 35.768 144.68 36.392 147.68 36.392C150.704 36.392 152.432 35.768 152.432 34.544C152.432 33.296 150.704 32.696 147.68 32.696ZM147.68 38.768C142.808 38.768 139.688 37.184 139.688 34.544C139.688 31.88 142.808 30.296 147.68 30.296C152.552 30.296 155.696 31.88 155.696 34.544C155.696 37.184 152.552 38.768 147.68 38.768ZM152.168 49.328V46.784H143.12V49.328H152.168ZM157.664 42.416H149.264V44.312H155.288V51.8H140.024V44.312H146.096V42.416H137.696V39.896H157.664V42.416ZM164.742 44.6C165.966 44.6 166.662 42.944 166.662 39.536C166.662 36.152 165.966 34.496 164.742 34.496C163.542 34.496 162.822 36.152 162.822 39.536C162.822 42.944 163.542 44.6 164.742 44.6ZM171.246 38.096V30.32H174.198V51.08H171.246V40.664H169.518C169.23 44.984 167.43 47.576 164.742 47.576C161.814 47.576 159.966 44.552 159.966 39.536C159.966 34.544 161.814 31.52 164.742 31.52C167.358 31.52 169.134 33.968 169.494 38.096H171.246ZM175.734 29.936H178.734V52.04H175.734V29.936ZM190.156 31.664V34.856C190.156 39.032 191.764 43.088 195.412 44.72L193.54 47.24C191.116 46.064 189.508 43.904 188.596 41.24C187.636 44.072 185.98 46.376 183.508 47.624L181.54 45.08C185.284 43.352 186.964 39.056 186.964 34.856V31.664H190.156ZM197.236 29.936H200.404V52.112H197.236V39.416H192.988V36.872H197.236V29.936ZM224.212 36.632V33.368H215.452V36.632H224.212ZM227.332 30.896V39.128H212.332V30.896H227.332ZM215.356 45.272V49.16H227.668V51.68H212.188V45.272H215.356ZM209.86 40.88H229.876V43.376H221.74V47.144H218.572V43.376H209.86V40.88ZM239.066 31.424C242.522 31.424 245.162 33.704 245.162 36.872C245.162 40.064 242.522 42.32 239.066 42.32C235.61 42.32 232.994 40.064 232.994 36.872C232.994 33.704 235.61 31.424 239.066 31.424ZM239.066 34.136C237.362 34.136 236.066 35.144 236.066 36.872C236.066 38.6 237.362 39.608 239.066 39.608C240.77 39.608 242.066 38.6 242.066 36.872C242.066 35.144 240.77 34.136 239.066 34.136ZM247.226 29.936H250.394V52.112H247.226V29.936ZM232.466 47.624L232.058 45.056C235.946 45.056 241.37 45.032 246.026 44.336L246.218 46.616C241.466 47.576 236.282 47.624 232.466 47.624ZM258.215 47.6136L258.104 48.5511C258.025 49.267 257.883 49.9943 257.678 50.733C257.479 51.4773 257.269 52.1619 257.048 52.7869C256.826 53.4119 256.647 53.9034 256.511 54.2614H254.431C254.511 53.9148 254.619 53.4432 254.755 52.8466C254.897 52.25 255.033 51.5795 255.164 50.8352C255.295 50.0909 255.383 49.3352 255.428 48.5682L255.488 47.6136H258.215ZM281.844 35.12H277.164C275.82 38.408 272.7 40.496 267.852 41.552L266.796 39.008C271.812 38.024 274.068 35.912 274.452 33.32H268.068V30.8H277.932C277.932 31.472 277.884 32.12 277.788 32.744H281.844V29.96H285.012V41.048H281.844V39.392H276.948V37.016H281.844V35.12ZM273.636 49.352H285.468V51.848H270.468V45.608H281.844V44.36H270.444V41.864H285.012V47.96H273.636V49.352ZM295.618 34.736V35.816C295.618 39.512 296.698 43.232 299.89 45.104L298.042 47.408C296.098 46.232 294.826 44.336 294.106 42.008C293.338 44.528 292.042 46.688 290.05 47.936L288.178 45.608C291.394 43.568 292.546 39.608 292.546 35.816V34.736H288.994V32.168H298.834V34.736H295.618ZM300.106 37.496V30.32H303.058V51.056H300.106V40.064H297.298V37.496H300.106ZM304.57 29.936H307.57V52.04H304.57V29.936ZM311.216 32.216H317.192C317.192 38.312 316.64 43.064 312.704 47.432L310.232 45.632C313.16 42.392 314.024 39.2 314.192 34.76H311.216V32.216ZM317.96 32.216H323.288C323.288 38.6 322.784 44.048 318.92 48.824L316.424 47.072C319.352 43.376 320.144 39.68 320.312 34.76H317.96V32.216ZM331.112 38.6V41.216H328.256V52.04H325.064V29.936H328.256V38.6H331.112ZM341.31 34.688V35.912C341.31 39.512 343.086 43.328 346.782 44.864L345.054 47.36C342.486 46.256 340.734 44.096 339.75 41.432C338.766 44.312 336.99 46.736 334.398 47.912L332.598 45.392C336.294 43.736 338.094 39.68 338.094 35.912V34.688H333.486V32.072H345.87V34.688H341.31ZM347.91 29.96H351.078V52.064H347.91V29.96ZM373.83 32.288L373.806 34.76H360.798V32.288H365.694V29.936H368.886V32.288H373.83ZM364.902 39.8C364.902 41.024 365.886 41.672 367.302 41.672C368.694 41.672 369.702 41.024 369.702 39.8C369.702 38.6 368.694 37.952 367.302 37.952C365.886 37.952 364.902 38.6 364.902 39.8ZM372.726 39.8C372.726 42.344 370.47 44.072 367.302 44.072C364.134 44.072 361.878 42.344 361.878 39.8C361.878 37.304 364.134 35.552 367.302 35.552C370.47 35.552 372.726 37.304 372.726 39.8ZM367.11 45.272V49.16H378.99V51.68H363.942V45.272H367.11ZM378.198 36.704H381.126V39.32H378.198V46.496H375.03V29.96H378.198V36.704ZM391.156 40.328V37.208H386.956V40.328H391.156ZM394.252 38.384V42.848H383.812V31.424H386.956V34.784H391.156V31.448H394.252V35.84H398.188V29.984H401.356V46.28H398.188V38.384H394.252ZM389.932 49.16H401.836V51.68H386.764V44.696H389.932V49.16ZM409.922 44.6C411.146 44.6 411.842 42.944 411.842 39.536C411.842 36.152 411.146 34.496 409.922 34.496C408.722 34.496 408.002 36.152 408.002 39.536C408.002 42.944 408.722 44.6 409.922 44.6ZM416.426 38.096V30.32H419.378V51.08H416.426V40.664H414.698C414.41 44.984 412.61 47.576 409.922 47.576C406.994 47.576 405.146 44.552 405.146 39.536C405.146 34.544 406.994 31.52 409.922 31.52C412.538 31.52 414.314 33.968 414.674 38.096H416.426ZM420.914 29.936H423.914V52.04H420.914V29.936Z" fill="#1E1E1E"/>
</svg>
