<svg width="532" height="24" viewBox="0 0 532 24" fill="none" xmlns="http://www.w3.org/2000/svg">
<path d="M9.896 5.448V8.016H15.944V5.448H9.896ZM9.896 12.336V14.904H15.944V12.336H9.896ZM6.056 2.448C2.72 2.448 0.32 5.52 0.32 10.368C0.32 15.264 2.72 18.336 6.056 18.336C9.368 18.336 11.792 15.264 11.792 10.368C11.792 5.52 9.368 2.448 6.056 2.448ZM6.056 5.352C7.688 5.352 8.768 7.104 8.768 10.368C8.768 13.68 7.688 15.456 6.056 15.456C4.448 15.456 3.344 13.68 3.344 10.368C3.344 7.104 4.448 5.352 6.056 5.352ZM15.44 0.887999V23.184H18.608V0.887999H15.44ZM37.4461 0.887999V23.184H40.6381V0.887999H37.4461ZM33.9661 8.904V11.472H38.0941V8.904H33.9661ZM22.8061 15.408V18.048H24.6301C28.3261 18.048 31.3021 17.928 34.5901 17.376L34.3021 14.784C31.0861 15.336 28.2301 15.408 24.6301 15.408H22.8061ZM22.7581 2.784V5.328H29.6221V8.616H22.8061V16.2H25.9741V11.136H32.7661V2.784H22.7581ZM46.4203 1.92V4.416H60.4843V1.92H46.4203ZM44.1643 10.944V13.464H64.1803V10.944H44.1643ZM51.5803 6.84V11.328H54.7483V6.84H51.5803ZM58.6363 1.92V3.648C58.6363 5.328 58.6363 7.032 58.1083 9.408L61.2763 9.72C61.8043 7.296 61.8043 5.352 61.8043 3.648V1.92H58.6363ZM52.4683 14.784V15.432C52.4683 17.688 50.2603 20.016 45.3163 20.592L46.4683 23.064C52.1083 22.32 55.2043 19.272 55.2043 15.432V14.784H52.4683ZM52.9243 14.784V15.432C52.9243 19.272 56.0203 22.32 61.7083 23.064L62.8363 20.592C57.8923 20.016 55.6603 17.688 55.6603 15.432V14.784H52.9243ZM75.0744 9.096V11.664H78.7224V9.096H75.0744ZM82.2504 0.912V23.136H85.2984V0.912H82.2504ZM77.7144 1.248V22.128H80.7144V1.248H77.7144ZM71.1864 2.472C68.2584 2.472 66.3864 5.52 66.3864 10.536C66.3864 15.576 68.2584 18.624 71.1864 18.624C74.1384 18.624 76.0344 15.576 76.0344 10.536C76.0344 5.52 74.1384 2.472 71.1864 2.472ZM71.1864 5.472C72.4344 5.472 73.1304 7.152 73.1304 10.536C73.1304 13.944 72.4344 15.6 71.1864 15.6C69.9864 15.6 69.2904 13.944 69.2904 10.536C69.2904 7.152 69.9864 5.472 71.1864 5.472ZM99.4805 7.848V10.416H105.337V7.848H99.4805ZM93.4325 2.616V5.832C93.4325 10.056 91.7525 14.352 87.9605 16.104L89.9525 18.672C94.1285 16.584 96.0245 11.424 96.0245 5.832V2.616H93.4325ZM94.1045 2.616V5.832C94.1045 11.376 95.8565 16.272 100.033 18.288L101.929 15.744C98.2565 14.112 96.6485 10.056 96.6485 5.832V2.616H94.1045ZM103.753 0.887999V23.184H106.921V0.887999H103.753ZM121.296 4.608V5.424C121.296 7.824 119.736 10.2 116.136 11.16L117.6 13.656C121.848 12.504 123.864 9.192 123.864 5.424V4.608H121.296ZM121.896 4.608V5.424C121.896 9 123.888 12.168 128.184 13.248L129.6 10.8C126.024 9.888 124.488 7.632 124.488 5.424V4.608H121.896ZM116.928 3.048V5.544H128.856V3.048H116.928ZM121.296 0.839999V4.2H124.488V0.839999H121.296ZM130.608 0.912V13.56H133.8V0.912H130.608ZM132.912 5.88V8.496H136.752V5.88H132.912ZM124.944 15.576V16.104C124.944 18.024 122.88 20.088 118.248 20.64L119.4 23.064C124.752 22.368 127.632 19.56 127.632 16.104V15.576H124.944ZM125.64 15.576V16.104C125.64 19.464 128.52 22.416 133.896 23.112L135.024 20.688C130.464 20.088 128.352 17.952 128.352 16.104V15.576H125.64ZM119.184 14.52V17.04H134.088V14.52H119.184ZM143.734 4.416V6.912C143.734 10.68 141.934 14.784 138.214 16.44L140.014 18.96C144.19 17.064 146.278 12.048 146.278 6.912V4.416H143.734ZM144.454 4.416V6.912C144.454 11.856 146.518 16.584 150.742 18.408L152.47 15.888C148.75 14.352 146.974 10.512 146.974 6.912V4.416H144.454ZM139.102 3.048V5.664H151.558V3.048H139.102ZM153.622 0.912V23.136H156.838V0.912H153.622ZM180.717 0.912V12H183.909V0.912H180.717ZM182.613 5.16V7.776H186.837V5.16H182.613ZM167.061 1.944V11.184H177.645V1.944H167.061ZM174.501 4.44V8.688H170.205V4.44H174.501ZM169.221 12.888V15.336H180.765V16.68H169.269V21.624H172.437V18.984H183.909V12.888H169.221ZM169.269 20.4V22.896H184.557V20.4H169.269ZM190.555 2.784V5.352H204.643V2.784H190.555ZM188.515 17.88V20.472H208.603V17.88H188.515ZM195.619 10.248V19.152H198.811V10.248H195.619ZM203.491 2.784V4.92C203.491 7.584 203.491 10.8 202.603 15.216L205.795 15.576C206.683 10.824 206.683 7.704 206.683 4.92V2.784H203.491ZM230.827 0.935999V17.544H234.019V0.935999H230.827ZM233.107 7.704V10.32H236.971V7.704H233.107ZM216.523 3.24V5.736H229.603V3.24H216.523ZM223.075 6.528C219.859 6.528 217.603 8.28 217.603 10.824C217.603 13.368 219.859 15.096 223.075 15.096C226.267 15.096 228.523 13.368 228.523 10.824C228.523 8.28 226.267 6.528 223.075 6.528ZM223.075 8.952C224.491 8.952 225.475 9.624 225.475 10.824C225.475 12.024 224.491 12.672 223.075 12.672C221.659 12.672 220.675 12.024 220.675 10.824C220.675 9.624 221.659 8.952 223.075 8.952ZM221.467 0.887999V4.464H224.659V0.887999H221.467ZM219.691 20.208V22.752H234.811V20.208H219.691ZM219.691 16.296V21.312H222.883V16.296H219.691ZM241.169 6.888V9.384H256.529V6.888H241.169ZM241.169 1.512V7.848H244.361V1.512H241.169ZM238.625 11.328V13.848H258.737V11.328H238.625ZM247.337 13.104V17.736H250.529V13.104H247.337ZM240.977 20.208V22.752H256.649V20.208H240.977ZM240.977 16.056V21.576H244.145V16.056H240.977ZM269.559 9.096V11.664H273.207V9.096H269.559ZM276.735 0.912V23.136H279.783V0.912H276.735ZM272.199 1.248V22.128H275.199V1.248H272.199ZM265.671 2.472C262.743 2.472 260.871 5.52 260.871 10.536C260.871 15.576 262.743 18.624 265.671 18.624C268.623 18.624 270.519 15.576 270.519 10.536C270.519 5.52 268.623 2.472 265.671 2.472ZM265.671 5.472C266.919 5.472 267.615 7.152 267.615 10.536C267.615 13.944 266.919 15.6 265.671 15.6C264.471 15.6 263.775 13.944 263.775 10.536C263.775 7.152 264.471 5.472 265.671 5.472ZM288.734 17.976V20.568H308.846V17.976H288.734ZM297.182 13.056V18.696H300.374V13.056H297.182ZM297.086 3.816V4.608C297.086 7.68 294.446 10.752 289.502 11.52L290.75 14.04C296.414 13.008 299.774 9.288 299.774 4.608V3.816H297.086ZM297.734 3.816V4.608C297.734 9.288 301.142 12.912 306.902 13.92L308.126 11.4C303.062 10.656 300.422 7.68 300.422 4.608V3.816H297.734ZM290.39 2.592V5.136H307.118V2.592H290.39ZM316.428 14.424V18.024H319.62V14.424H316.428ZM326.148 0.912V23.136H329.34V0.912H326.148ZM311.292 19.44C315.228 19.44 320.388 19.416 325.212 18.528L324.996 16.224C320.316 16.848 314.94 16.848 310.908 16.872L311.292 19.44ZM311.34 3.36V5.856H324.708V3.36H311.34ZM318.012 6.744C314.772 6.744 312.492 8.424 312.492 10.896C312.492 13.392 314.772 15.072 318.012 15.072C321.3 15.072 323.58 13.392 323.58 10.896C323.58 8.424 321.3 6.744 318.012 6.744ZM318.012 9.144C319.5 9.144 320.532 9.768 320.532 10.896C320.532 12.048 319.5 12.672 318.012 12.672C316.572 12.672 315.54 12.048 315.54 10.896C315.54 9.768 316.572 9.144 318.012 9.144ZM316.428 1.008V4.8H319.62V1.008H316.428ZM347.122 0.912V23.136H350.29V0.912H347.122ZM349.57 9.576V12.24H353.506V9.576H349.57ZM332.77 4.2V6.744H345.706V4.2H332.77ZM339.274 7.992C336.034 7.992 333.634 10.2 333.634 13.296C333.634 16.392 336.034 18.6 339.274 18.6C342.514 18.6 344.914 16.392 344.914 13.296C344.914 10.2 342.514 7.992 339.274 7.992ZM339.274 10.584C340.786 10.584 341.866 11.592 341.866 13.296C341.866 15 340.786 16.008 339.274 16.008C337.762 16.008 336.682 15 336.682 13.296C336.682 11.592 337.762 10.584 339.274 10.584ZM337.666 1.272V5.16H340.858V1.272H337.666ZM357.008 2.784V5.352H371.096V2.784H357.008ZM354.968 17.88V20.472H375.056V17.88H354.968ZM362.072 10.248V19.152H365.264V10.248H362.072ZM369.944 2.784V4.92C369.944 7.584 369.944 10.8 369.056 15.216L372.248 15.576C373.136 10.824 373.136 7.704 373.136 4.92V2.784H369.944ZM383.96 2.52V5.088H393.464V2.52H383.96ZM386.696 7.704V13.272H389.864V7.704H386.696ZM392.216 2.52V3.912C392.216 5.448 392.216 7.368 391.736 10.104L394.832 10.44C395.36 7.68 395.36 5.472 395.36 3.912V2.52H392.216ZM397.52 0.912V17.544H400.736V0.912H397.52ZM399.464 7.68V10.296H403.376V7.68H399.464ZM385.904 20.208V22.752H401.432V20.208H385.904ZM385.904 16.056V21H389.096V16.056H385.904ZM382.952 14.568C386.768 14.568 391.928 14.472 396.512 13.608L396.32 11.352C391.856 11.976 386.504 12.048 382.664 12.048L382.952 14.568ZM420.366 0.887999V23.184H423.558V0.887999H420.366ZM406.254 15.408V18H408.222C412.278 18 415.542 17.88 419.142 17.232L418.83 14.664C415.302 15.264 412.158 15.408 408.222 15.408H406.254ZM406.23 2.784V5.328H413.454V8.856H406.254V16.368H409.494V11.376H416.718V2.784H406.23ZM433.061 4.248V6.792H443.693V4.248H433.061ZM438.413 7.776C435.605 7.776 433.541 9.96 433.541 13.08C433.541 16.176 435.605 18.36 438.413 18.36C441.245 18.36 443.285 16.176 443.285 13.08C443.285 9.96 441.245 7.776 438.413 7.776ZM438.413 10.44C439.613 10.44 440.477 11.4 440.477 13.08C440.477 14.76 439.613 15.696 438.413 15.696C437.213 15.696 436.373 14.76 436.373 13.08C436.373 11.4 437.213 10.44 438.413 10.44ZM449.141 0.912V23.136H452.189V0.912H449.141ZM446.477 9.936V12.504H450.149V9.936H446.477ZM444.485 1.32V22.2H447.461V1.32H444.485ZM436.853 1.512V5.856H439.997V1.512H436.853ZM461.14 17.976V20.568H481.252V17.976H461.14ZM469.564 13.224V18.6H472.756V13.224H469.564ZM463.252 2.328V13.896H479.068V2.328H475.9V5.736H466.42V2.328H463.252ZM466.42 8.232H475.9V11.352H466.42V8.232ZM491.954 8.376V10.968H495.626V8.376H491.954ZM487.202 2.832V6.576C487.202 10.344 486.05 14.304 482.786 16.32L484.706 18.72C488.258 16.536 489.65 11.616 489.65 6.576V2.832H487.202ZM487.898 2.832V6.432C487.898 11.232 489.002 16.032 492.53 18.216L494.258 15.72C491.234 13.752 490.298 10.056 490.298 6.432V2.832H487.898ZM499.25 0.912V23.136H502.298V0.912H499.25ZM494.738 1.248V22.128H497.714V1.248H494.738ZM509.713 12.192V18.432H512.881V12.192H509.713ZM517.777 12.192V18.432H520.969V12.192H517.777ZM505.297 17.976V20.568H525.409V17.976H505.297ZM515.329 1.992C510.529 1.992 507.025 4.344 507.025 7.968C507.025 11.592 510.529 13.92 515.329 13.92C520.105 13.92 523.633 11.592 523.633 7.968C523.633 4.344 520.105 1.992 515.329 1.992ZM515.329 4.488C518.424 4.488 520.489 5.76 520.489 7.968C520.489 10.152 518.424 11.448 515.329 11.448C512.233 11.448 510.169 10.152 510.169 7.968C510.169 5.76 512.233 4.488 515.329 4.488ZM529.876 21.1875C529.359 21.1875 528.916 21.0057 528.547 20.642C528.178 20.2784 527.996 19.8352 528.001 19.3125C527.996 18.8011 528.178 18.3636 528.547 18C528.916 17.6364 529.359 17.4545 529.876 17.4545C530.376 17.4545 530.811 17.6364 531.18 18C531.555 18.3636 531.746 18.8011 531.751 19.3125C531.746 19.6591 531.655 19.9744 531.479 20.2585C531.308 20.5426 531.081 20.7699 530.797 20.9403C530.518 21.1051 530.212 21.1875 529.876 21.1875Z" fill="#1E1E1E"/>
</svg>
