<svg width="467" height="53" viewBox="0 0 467 53" fill="none" xmlns="http://www.w3.org/2000/svg">
<path d="M9.36 3.048V3.432C9.36 9.672 7.776 13.92 0.864 17.4L2.568 19.824C10.848 15.624 12.48 9.912 12.48 3.048H9.36ZM2.232 3.048V5.568H11.256V3.048H2.232ZM9.432 8.496L1.08 8.976L1.464 11.712L9.432 10.944V8.496ZM15.168 0.887999V23.112H18.384V0.887999H15.168ZM17.544 9.384V12H21.456V9.384H17.544ZM32.0861 9V11.568H36.0221V9H32.0861ZM23.6861 15.696V18.264H25.1981C28.3901 18.264 30.5261 18.216 33.0221 17.784L32.7581 15.24C30.3341 15.648 28.3181 15.696 25.1981 15.696H23.6861ZM23.6861 3.36V16.632H26.7101V5.88H31.9421V3.36H23.6861ZM25.8461 9.336V11.784H31.1021V9.336H25.8461ZM39.0941 0.912V23.136H42.1421V0.912H39.0941ZM34.5101 1.296V22.152H37.4861V1.296H34.5101ZM47.1803 2.784V5.352H61.2683V2.784H47.1803ZM45.1403 17.88V20.472H65.2283V17.88H45.1403ZM52.2443 10.248V19.152H55.4363V10.248H52.2443ZM60.1163 2.784V4.92C60.1163 7.584 60.1163 10.8 59.2283 15.216L62.4203 15.576C63.3083 10.824 63.3083 7.704 63.3083 4.92V2.784H60.1163ZM82.5064 0.887999V23.184H85.6984V0.887999H82.5064ZM68.3944 15.408V18H70.3624C74.4184 18 77.6824 17.88 81.2824 17.232L80.9704 14.664C77.4424 15.264 74.2984 15.408 70.3624 15.408H68.3944ZM68.3704 2.784V5.328H75.5944V8.856H68.3944V16.368H71.6344V11.376H78.8584V2.784H68.3704ZM93.5199 18.6136L93.4091 19.5511C93.3295 20.267 93.1875 20.9943 92.983 21.733C92.7841 22.4773 92.5739 23.1619 92.3523 23.7869C92.1307 24.4119 91.9517 24.9034 91.8153 25.2614H89.7358C89.8153 24.9148 89.9233 24.4432 90.0597 23.8466C90.2017 23.25 90.3381 22.5795 90.4688 21.8352C90.5994 21.0909 90.6875 20.3352 90.733 19.5682L90.7926 18.6136H93.5199ZM102.725 3.216V5.736H120.821V3.216H102.725ZM101.789 15.288V17.856H121.901V15.288H101.789ZM110.213 17.544V23.16H113.405V17.544H110.213ZM111.821 6.6C107.021 6.6 104.189 7.944 104.189 10.416C104.189 12.864 107.021 14.232 111.821 14.232C116.597 14.232 119.429 12.864 119.429 10.416C119.429 7.944 116.597 6.6 111.821 6.6ZM111.821 8.976C114.725 8.976 116.141 9.408 116.141 10.416C116.141 11.424 114.725 11.856 111.821 11.856C108.917 11.856 107.501 11.424 107.501 10.416C107.501 9.408 108.917 8.976 111.821 8.976ZM110.213 0.887999V4.896H113.405V0.887999H110.213ZM139.155 0.912V23.136H142.371V0.912H139.155ZM132.603 3.216V3.792C132.603 9.744 130.299 13.776 123.915 16.848L125.571 19.392C133.467 15.576 135.771 10.008 135.771 3.216H132.603ZM125.091 3.216V5.736H134.115V3.216H125.091ZM150.168 18.6136L150.058 19.5511C149.978 20.267 149.836 20.9943 149.631 21.733C149.433 22.4773 149.222 23.1619 149.001 23.7869C148.779 24.4119 148.6 24.9034 148.464 25.2614H146.384C146.464 24.9148 146.572 24.4432 146.708 23.8466C146.85 23.25 146.987 22.5795 147.117 21.8352C147.248 21.0909 147.336 20.3352 147.381 19.5682L147.441 18.6136H150.168ZM172.621 0.887999V23.112H175.837V0.887999H172.621ZM174.997 9.384V12H178.909V9.384H174.997ZM166.789 3.192V3.744C166.789 9.768 164.029 13.848 158.197 16.872L159.973 19.296C167.365 15.576 169.909 9.864 169.909 3.192H166.789ZM159.421 3.192V5.76H168.421V3.192H159.421ZM188.939 2.304V3.888C188.939 7.296 186.179 10.176 180.731 11.592L181.931 14.088C188.579 12.336 192.275 8.28 192.275 2.304H188.939ZM181.979 2.304V4.848H191.003V2.304H181.979ZM183.947 15.048V17.544H195.899V23.064H199.091V15.048H183.947ZM195.899 0.912V14.112H199.091V0.912H195.899ZM191.219 4.488V7.008H196.427V4.488H191.219ZM191.003 9.216V11.76H196.235V9.216H191.003ZM218.625 0.912V23.136H221.649V0.912H218.625ZM215.649 9.456V12.024H219.345V9.456H215.649ZM213.657 1.296V22.08H216.609V1.296H213.657ZM203.193 15.504V18.12H204.753C207.609 18.12 209.961 18.048 212.649 17.52L212.409 14.928C209.769 15.408 207.489 15.504 204.753 15.504H203.193ZM203.193 3.48V16.752H206.361V6.048H211.401V3.48H203.193ZM228.895 18.6136L228.784 19.5511C228.705 20.267 228.563 20.9943 228.358 21.733C228.159 22.4773 227.949 23.1619 227.727 23.7869C227.506 24.4119 227.327 24.9034 227.19 25.2614H225.111C225.19 24.9148 225.298 24.4432 225.435 23.8466C225.577 23.25 225.713 22.5795 225.844 21.8352C225.974 21.0909 226.063 20.3352 226.108 19.5682L226.168 18.6136H228.895ZM242.132 2.616V5.856C242.132 9.984 240.428 14.256 236.684 16.008L238.604 18.576C242.804 16.512 244.724 11.352 244.724 5.856V2.616H242.132ZM242.78 2.616V5.856C242.78 11.184 244.532 16.128 248.54 18.168L250.46 15.624C246.908 13.896 245.324 9.84 245.324 5.856V2.616H242.78ZM251.348 0.912V23.136H254.564V0.912H251.348ZM253.844 9.456V12.12H257.78V9.456H253.844ZM263.73 8.352V12.432H266.922V8.352H263.73ZM271.554 8.352V12.432H274.722V8.352H271.554ZM259.218 11.448V13.968H279.306V11.448H259.218ZM269.226 15.096C264.402 15.096 261.498 16.536 261.498 19.104C261.498 21.696 264.402 23.136 269.226 23.136C274.026 23.136 276.93 21.696 276.93 19.104C276.93 16.536 274.026 15.096 269.226 15.096ZM269.226 17.496C272.202 17.496 273.714 18 273.714 19.104C273.714 20.232 272.202 20.736 269.226 20.736C266.25 20.736 264.738 20.232 264.738 19.104C264.738 18 266.25 17.496 269.226 17.496ZM269.274 1.224C264.354 1.224 261.234 2.856 261.234 5.52C261.234 8.16 264.354 9.744 269.274 9.744C274.17 9.744 277.314 8.16 277.314 5.52C277.314 2.856 274.17 1.224 269.274 1.224ZM269.274 3.672C272.322 3.672 274.026 4.272 274.026 5.52C274.026 6.744 272.322 7.344 269.274 7.344C266.226 7.344 264.522 6.744 264.522 5.52C264.522 4.272 266.226 3.672 269.274 3.672ZM286.288 4.416V6.912C286.288 10.56 284.488 14.712 280.816 16.44L282.616 18.96C286.696 17.04 288.808 11.928 288.808 6.912V4.416H286.288ZM286.96 4.416V6.912C286.96 11.64 289.024 16.512 293.104 18.408L294.856 15.888C291.208 14.208 289.48 10.272 289.48 6.912V4.416H286.96ZM281.68 3.048V5.664H293.872V3.048H281.68ZM295.504 0.912V23.136H298.72V0.912H295.504ZM298 9.384V12.024H301.936V9.384H298ZM314.102 3.696V6.096H319.478V3.696H314.102ZM314.102 7.752V10.152H319.478V7.752H314.102ZM318.782 0.912V12.312H321.974V0.912H318.782ZM307.286 13.176V15.624H318.806V16.824H307.31V21.936H310.478V19.128H321.974V13.176H307.286ZM307.31 20.424V22.896H322.598V20.424H307.31ZM304.31 1.824V11.712H314.822V1.824H311.702V4.416H307.478V1.824H304.31ZM307.478 6.816H311.702V9.216H307.478V6.816ZM339.853 15.144V23.16H343.021V15.144H339.853ZM331.429 14.208V16.8H351.517V14.208H331.429ZM339.829 4.896V5.424C339.829 7.488 337.453 10.008 332.437 10.584L333.541 13.08C339.421 12.384 342.637 9.144 342.637 5.424V4.896H339.829ZM340.237 4.896V5.424C340.237 9.048 343.453 12.408 349.309 13.08L350.437 10.584C345.445 10.008 343.045 7.44 343.045 5.424V4.896H340.237ZM333.229 3.456V5.976H349.693V3.456H333.229ZM339.853 0.959999V4.32H343.021V0.959999H339.853ZM358.475 5.256V6.12C358.475 8.808 356.939 11.496 353.339 12.624L354.875 15.12C359.099 13.8 361.067 10.176 361.067 6.12V5.256H358.475ZM359.051 5.256V6.12C359.051 10.008 361.091 13.512 365.291 14.76L366.827 12.264C363.227 11.184 361.667 8.616 361.667 6.12V5.256H359.051ZM354.107 3.528V6.024H366.035V3.528H354.107ZM358.475 1.08V4.464H361.667V1.08H358.475ZM365.339 7.368V9.984H370.499V7.368H365.339ZM368.891 0.935999V17.376H372.083V0.935999H368.891ZM357.419 20.208V22.752H372.587V20.208H357.419ZM357.419 16.008V21.888H360.611V16.008H357.419ZM389.627 2.184V3.696C389.627 7.104 386.915 9.936 381.611 11.376L382.859 13.848C389.363 12.072 392.963 8.04 392.963 2.184H389.627ZM382.835 2.184V4.704H391.835V2.184H382.835ZM396.923 0.912V13.344H400.115V0.912H396.923ZM393.083 6.168V8.76H397.379V6.168H393.083ZM385.475 14.232V22.896H400.115V14.232H385.475ZM396.971 16.752V20.376H388.619V16.752H396.971ZM407.601 2.184V4.728C407.601 7.248 406.377 10.008 403.281 11.376L404.961 13.848C408.585 12.288 410.097 8.52 410.097 4.728V2.184H407.601ZM408.177 2.184V4.728C408.177 8.424 409.641 11.832 413.097 13.248L414.777 10.824C411.849 9.6 410.673 7.2 410.673 4.728V2.184H408.177ZM419.505 0.935999V14.4H422.529V0.935999H419.505ZM416.841 6.312V8.904H420.369V6.312H416.841ZM414.801 1.272V14.28H417.777V1.272H414.801ZM407.265 15.36V17.904H419.361V23.136H422.529V15.36H407.265ZM440.143 0.912V23.136H443.335V0.912H440.143ZM442.351 9.6V12.24H446.215V9.6H442.351ZM429.247 3.168V3.552C429.247 9.192 428.647 12.888 425.215 16.68L427.711 18.48C431.647 14.064 432.223 9.336 432.223 3.168H429.247ZM426.199 3.168V5.76H430.495V3.168H426.199ZM435.367 3.168V3.528C435.367 9.6 434.815 13.872 431.455 18.12L433.951 19.896C437.815 15.072 438.343 9.624 438.343 3.168H435.367ZM432.967 3.168V5.76H436.687V3.168H432.967ZM453.101 4.416V6.912C453.101 10.68 451.301 14.784 447.581 16.44L449.381 18.96C453.557 17.064 455.645 12.048 455.645 6.912V4.416H453.101ZM453.821 4.416V6.912C453.821 11.856 455.885 16.584 460.109 18.408L461.837 15.888C458.117 14.352 456.341 10.512 456.341 6.912V4.416H453.821ZM448.469 3.048V5.664H460.925V3.048H448.469ZM462.989 0.912V23.136H466.205V0.912H462.989ZM6.912 31.448C3.528 31.448 1.08 34.52 1.08 39.368C1.08 44.264 3.528 47.336 6.912 47.336C10.296 47.336 12.744 44.264 12.744 39.368C12.744 34.52 10.296 31.448 6.912 31.448ZM6.912 34.352C8.568 34.352 9.696 36.104 9.696 39.368C9.696 42.68 8.568 44.456 6.912 44.456C5.256 44.456 4.152 42.68 4.152 39.368C4.152 36.104 5.256 34.352 6.912 34.352ZM15.168 29.912V52.136H18.384V29.912H15.168ZM17.664 38.288V40.928H21.6V38.288H17.664ZM25.3181 31.856V34.4H39.3101V31.856H25.3181ZM23.0621 46.904V49.52H43.1501V46.904H23.0621ZM37.9661 31.856V34.424C37.9661 37.568 37.9661 40.808 36.9341 45.296L40.0781 45.584C41.1101 40.736 41.1101 37.664 41.1101 34.424V31.856H37.9661ZM38.6381 37.952L24.6701 38.408L25.0541 40.976L38.6381 40.304V37.952ZM60.4283 29.888V52.184H63.6203V29.888H60.4283ZM46.3163 44.408V47H48.2843C52.3403 47 55.6043 46.88 59.2043 46.232L58.8923 43.664C55.3643 44.264 52.2203 44.408 48.2843 44.408H46.3163ZM46.2923 31.784V34.328H53.5163V37.856H46.3163V45.368H49.5563V40.376H56.7803V31.784H46.2923ZM75.6424 41.48V45.008H78.8344V41.48H75.6424ZM77.2504 30.224C72.3544 30.224 69.2104 31.832 69.2104 34.52C69.2104 37.184 72.3544 38.768 77.2504 38.768C82.1464 38.768 85.2904 37.184 85.2904 34.52C85.2904 31.832 82.1464 30.224 77.2504 30.224ZM77.2504 32.648C80.2744 32.648 82.0024 33.272 82.0024 34.52C82.0024 35.744 80.2744 36.344 77.2504 36.344C74.2024 36.344 72.4984 35.744 72.4984 34.52C72.4984 33.272 74.2024 32.648 77.2504 32.648ZM69.5224 44.312V51.896H84.8824V44.312H69.5224ZM81.7624 46.832V49.376H72.6664V46.832H81.7624ZM67.1944 39.896V42.44H87.2824V39.896H67.1944ZM98.1525 38.096V40.664H101.801V38.096H98.1525ZM105.329 29.912V52.136H108.377V29.912H105.329ZM100.793 30.248V51.128H103.793V30.248H100.793ZM94.2645 31.472C91.3365 31.472 89.4645 34.52 89.4645 39.536C89.4645 44.576 91.3365 47.624 94.2645 47.624C97.2165 47.624 99.1125 44.576 99.1125 39.536C99.1125 34.52 97.2165 31.472 94.2645 31.472ZM94.2645 34.472C95.5125 34.472 96.2085 36.152 96.2085 39.536C96.2085 42.944 95.5125 44.6 94.2645 44.6C93.0645 44.6 92.3685 42.944 92.3685 39.536C92.3685 36.152 93.0645 34.472 94.2645 34.472ZM122.559 36.848V39.416H128.415V36.848H122.559ZM116.511 31.616V34.832C116.511 39.056 114.831 43.352 111.039 45.104L113.031 47.672C117.207 45.584 119.103 40.424 119.103 34.832V31.616H116.511ZM117.183 31.616V34.832C117.183 40.376 118.935 45.272 123.111 47.288L125.007 44.744C121.335 43.112 119.727 39.056 119.727 34.832V31.616H117.183ZM126.831 29.888V52.184H129.999V29.888H126.831ZM153.686 29.936V46.544H156.878V29.936H153.686ZM155.966 36.704V39.32H159.83V36.704H155.966ZM139.382 32.24V34.736H152.462V32.24H139.382ZM145.934 35.528C142.718 35.528 140.462 37.28 140.462 39.824C140.462 42.368 142.718 44.096 145.934 44.096C149.126 44.096 151.382 42.368 151.382 39.824C151.382 37.28 149.126 35.528 145.934 35.528ZM145.934 37.952C147.35 37.952 148.334 38.624 148.334 39.824C148.334 41.024 147.35 41.672 145.934 41.672C144.518 41.672 143.534 41.024 143.534 39.824C143.534 38.624 144.518 37.952 145.934 37.952ZM144.326 29.888V33.464H147.518V29.888H144.326ZM142.55 49.208V51.752H157.67V49.208H142.55ZM142.55 45.296V50.312H145.742V45.296H142.55ZM171.972 35.816V38.36H177.684V35.816H171.972ZM176.868 29.936V46.328H180.06V29.936H176.868ZM165.348 49.208V51.752H180.54V49.208H165.348ZM165.348 44.72V50.672H168.564V44.72H165.348ZM162.396 31.376V42.848H172.908V31.376H169.788V34.76H165.564V31.376H162.396ZM165.564 37.184H169.788V40.328H165.564V37.184ZM192.418 38.096V40.664H196.066V38.096H192.418ZM199.594 29.912V52.136H202.642V29.912H199.594ZM195.058 30.248V51.128H198.058V30.248H195.058ZM188.53 31.472C185.602 31.472 183.73 34.52 183.73 39.536C183.73 44.576 185.602 47.624 188.53 47.624C191.482 47.624 193.378 44.576 193.378 39.536C193.378 34.52 191.482 31.472 188.53 31.472ZM188.53 34.472C189.778 34.472 190.474 36.152 190.474 39.536C190.474 42.944 189.778 44.6 188.53 44.6C187.33 44.6 186.634 42.944 186.634 39.536C186.634 36.152 187.33 34.472 188.53 34.472Z" fill="#1E1E1E"/>
</svg>
