<svg width="469" height="53" viewBox="0 0 469 53" fill="none" xmlns="http://www.w3.org/2000/svg">
<path d="M0.96 11.88V14.448H21.048V11.88H0.96ZM9.384 9.048V12.432H12.576V9.048H9.384ZM3.192 15.96V18.48H15.432V23.136H18.624V15.96H3.192ZM3.528 1.464V10.056H18.504V1.464H15.336V3.432H6.672V1.464H3.528ZM6.672 5.808H15.336V7.56H6.672V5.808ZM27.9341 2.976V4.392C27.9341 7.056 26.3501 9.744 22.6541 10.872L24.2141 13.392C28.5341 12.072 30.5261 8.448 30.5261 4.392V2.976H27.9341ZM28.5581 2.976V4.368C28.5581 8.208 30.5501 11.688 34.7981 12.912L36.2861 10.44C32.6861 9.384 31.1741 6.84 31.1741 4.368V2.976H28.5581ZM23.4941 2.112V4.656H35.5181V2.112H23.4941ZM37.3421 0.912V13.176H40.5341V0.912H37.3421ZM39.6461 5.616V8.232H43.4861V5.616H39.6461ZM26.0141 14.064V22.896H40.5341V14.064H37.3661V16.032H29.1821V14.064H26.0141ZM29.1821 18.48H37.3661V20.376H29.1821V18.48ZM59.4203 0.935999V17.544H62.6123V0.935999H59.4203ZM61.7003 7.704V10.32H65.5643V7.704H61.7003ZM45.1163 3.24V5.736H58.1963V3.24H45.1163ZM51.6683 6.528C48.4523 6.528 46.1963 8.28 46.1963 10.824C46.1963 13.368 48.4523 15.096 51.6683 15.096C54.8603 15.096 57.1163 13.368 57.1163 10.824C57.1163 8.28 54.8603 6.528 51.6683 6.528ZM51.6683 8.952C53.0843 8.952 54.0683 9.624 54.0683 10.824C54.0683 12.024 53.0843 12.672 51.6683 12.672C50.2523 12.672 49.2683 12.024 49.2683 10.824C49.2683 9.624 50.2523 8.952 51.6683 8.952ZM50.0603 0.887999V4.464H53.2523V0.887999H50.0603ZM48.2843 20.208V22.752H63.4043V20.208H48.2843ZM48.2843 16.296V21.312H51.4763V16.296H48.2843ZM73.1475 11.88V14.424H93.2595V11.88H73.1475ZM81.8595 13.488V18.168H85.0755V13.488H81.8595ZM75.6195 1.848V10.104H90.7155V1.848H75.6195ZM87.5715 4.344V7.608H78.7395V4.344H87.5715ZM75.4755 20.208V22.752H91.0515V20.208H75.4755ZM75.4755 16.296V21.048H78.6435V16.296H75.4755ZM102.378 2.376C98.8976 2.376 96.2336 4.656 96.2336 7.848C96.2336 11.064 98.8976 13.344 102.378 13.344C105.882 13.344 108.498 11.064 108.498 7.848C108.498 4.656 105.882 2.376 102.378 2.376ZM102.378 5.112C104.082 5.112 105.378 6.12 105.378 7.848C105.378 9.6 104.082 10.608 102.378 10.608C100.674 10.608 99.3776 9.6 99.3776 7.848C99.3776 6.12 100.674 5.112 102.378 5.112ZM110.586 0.887999V23.184H113.778V0.887999H110.586ZM95.7056 18.672C99.5456 18.672 104.778 18.624 109.602 17.664L109.362 15.36C104.682 16.056 99.2336 16.104 95.3216 16.104L95.7056 18.672ZM135.281 5.448V7.968H140.777V5.448H135.281ZM128.297 2.784V4.008C128.297 6.384 126.641 9.072 123.065 10.224L124.577 12.696C128.825 11.448 130.889 7.752 130.889 4.008V2.784H128.297ZM128.945 2.784V4.008C128.945 7.704 130.889 11.04 135.041 12.24L136.505 9.744C133.049 8.736 131.537 6.336 131.537 4.008V2.784H128.945ZM123.905 1.728V4.272H135.857V1.728H123.905ZM138.665 0.912V12.192H141.857V0.912H138.665ZM127.169 13.08V15.552H138.689V16.8H127.193V21.888H130.361V19.104H141.857V13.08H127.169ZM127.193 20.448V22.92H142.481V20.448H127.193ZM150.207 6.672V7.824C150.207 11.16 148.551 14.928 144.927 16.584L146.655 19.032C150.687 17.232 152.679 12.504 152.679 7.824V6.672H150.207ZM150.903 6.672V7.824C150.903 12.288 152.799 16.848 156.711 18.648L158.415 16.224C154.935 14.544 153.375 10.992 153.375 7.824V6.672H150.903ZM145.695 4.536V7.056H157.791V4.536H145.695ZM150.183 1.416V5.832H153.375V1.416H150.183ZM159.543 0.912V23.136H162.759V0.912H159.543ZM162.039 9.528V12.168H165.975V9.528H162.039ZM171.661 18.6136L171.55 19.5511C171.47 20.267 171.328 20.9943 171.124 21.733C170.925 22.4773 170.714 23.1619 170.493 23.7869C170.271 24.4119 170.092 24.9034 169.956 25.2614H167.876C167.956 24.9148 168.064 24.4432 168.2 23.8466C168.342 23.25 168.479 22.5795 168.609 21.8352C168.74 21.0909 168.828 20.3352 168.874 19.5682L168.933 18.6136H171.661ZM195.217 0.912V23.136H198.433V0.912H195.217ZM188.665 3.216V3.792C188.665 9.744 186.361 13.776 179.977 16.848L181.633 19.392C189.529 15.576 191.833 10.008 191.833 3.216H188.665ZM181.153 3.216V5.736H190.177V3.216H181.153ZM216.191 0.887999V23.184H219.407V0.887999H216.191ZM218.687 9.12V11.736H222.623V9.12H218.687ZM202.847 15.192V17.832H204.719C208.583 17.832 211.631 17.736 214.991 17.136L214.679 14.496C211.415 15.072 208.463 15.192 204.719 15.192H202.847ZM202.847 2.952V16.464H206.015V5.52H213.215V2.952H202.847ZM239.326 0.912V14.088H242.542V0.912H239.326ZM225.214 10.776V13.368H227.158C231.598 13.368 234.55 13.272 237.862 12.696L237.502 10.176C234.286 10.704 231.478 10.776 227.158 10.776H225.214ZM225.19 2.184V4.704H232.27V6.504H225.214V12.312H228.358V8.88H235.414V2.184H225.19ZM227.758 15.096V22.896H242.542V15.096H227.758ZM239.398 17.592V20.376H230.878V17.592H239.398ZM261.38 0.887999V23.184H264.596V0.887999H261.38ZM252.62 2.448C249.26 2.448 246.788 5.52 246.788 10.368C246.788 15.264 249.26 18.336 252.62 18.336C255.98 18.336 258.452 15.264 258.452 10.368C258.452 5.52 255.98 2.448 252.62 2.448ZM252.62 5.352C254.276 5.352 255.38 7.104 255.38 10.368C255.38 13.68 254.276 15.456 252.62 15.456C250.964 15.456 249.836 13.68 249.836 10.368C249.836 7.104 250.964 5.352 252.62 5.352ZM280.123 2.448C276.739 2.448 274.291 5.52 274.291 10.368C274.291 15.264 276.739 18.336 280.123 18.336C283.507 18.336 285.955 15.264 285.955 10.368C285.955 5.52 283.507 2.448 280.123 2.448ZM280.123 5.352C281.779 5.352 282.907 7.104 282.907 10.368C282.907 13.68 281.779 15.456 280.123 15.456C278.467 15.456 277.363 13.68 277.363 10.368C277.363 7.104 278.467 5.352 280.123 5.352ZM288.379 0.912V23.136H291.595V0.912H288.379ZM290.875 9.288V11.928H294.811V9.288H290.875ZM311.513 0.912V17.064H314.729V0.912H311.513ZM299.849 20.208V22.752H315.281V20.208H299.849ZM299.849 15.192V21.384H303.041V15.192H299.849ZM297.521 2.544V11.784H300.713V2.544H297.521ZM297.521 10.608V13.224H299.441C302.945 13.224 306.449 12.984 310.097 12.24L309.737 9.648C306.209 10.392 302.825 10.608 299.441 10.608H297.521ZM3.264 31.208V33.728H17.208V31.208H3.264ZM0.984 40.664V43.232H21.072V40.664H0.984ZM9.312 42.464V52.16H12.528V42.464H9.312ZM15.576 31.208V33.176C15.576 35.48 15.576 38.12 14.712 41.84L17.856 42.2C18.72 38.264 18.72 35.576 18.72 33.176V31.208H15.576ZM39.0941 29.912V52.136H42.1421V29.912H39.0941ZM36.4301 38.384V40.952H40.1021V38.384H36.4301ZM34.2221 30.248V51.128H37.2221V30.248H34.2221ZM23.6621 32.192V46.592H32.4461V32.192H23.6621ZM29.4701 34.688V44.096H26.6381V34.688H29.4701ZM67.1254 29.912V52.136H70.1494V29.912H67.1254ZM59.8054 37.496V40.088H63.4774V37.496H59.8054ZM62.6374 30.272V51.128H65.6134V30.272H62.6374ZM55.0054 33.536V35.816C55.0054 39.608 53.8774 43.592 50.6134 45.632L52.5094 47.984C56.0374 45.776 57.4054 40.808 57.4054 35.816V33.536H55.0054ZM55.7254 33.536V35.816C55.7254 40.712 57.0214 45.368 60.5494 47.456L62.4214 45.128C59.2054 43.256 58.1014 39.512 58.1014 35.816V33.536H55.7254ZM51.4534 32.144V34.712H61.3654V32.144H51.4534ZM81.5955 42.128V45.512H84.7875V42.128H81.5955ZM73.1475 40.304V42.824H93.2355V40.304H73.1475ZM74.8995 30.512V33.056H91.4595V30.512H74.8995ZM75.0675 36.392V38.936H91.2915V36.392H75.0675ZM77.7315 31.448V38.048H80.9235V31.448H77.7315ZM85.4355 31.448V38.048H88.6275V31.448H85.4355ZM75.4755 44.672V51.896H90.8355V44.672H75.4755ZM87.7155 47.144V49.376H78.6195V47.144H87.7155ZM102.378 31.376C98.8976 31.376 96.2336 33.656 96.2336 36.848C96.2336 40.064 98.8976 42.344 102.378 42.344C105.882 42.344 108.498 40.064 108.498 36.848C108.498 33.656 105.882 31.376 102.378 31.376ZM102.378 34.112C104.082 34.112 105.378 35.12 105.378 36.848C105.378 38.6 104.082 39.608 102.378 39.608C100.674 39.608 99.3776 38.6 99.3776 36.848C99.3776 35.12 100.674 34.112 102.378 34.112ZM110.586 29.888V52.184H113.778V29.888H110.586ZM95.7056 47.672C99.5456 47.672 104.778 47.624 109.602 46.664L109.362 44.36C104.682 45.056 99.2336 45.104 95.3216 45.104L95.7056 47.672ZM138.569 29.912V52.136H141.785V29.912H138.569ZM132.017 32.216V32.792C132.017 38.744 129.713 42.776 123.329 45.848L124.985 48.392C132.881 44.576 135.185 39.008 135.185 32.216H132.017ZM124.505 32.216V34.736H133.529V32.216H124.505ZM156.567 34.808V37.376H162.135V34.808H156.567ZM151.479 30.824C148.119 30.824 145.599 33.056 145.599 36.128C145.599 39.224 148.119 41.432 151.479 41.432C154.815 41.432 157.335 39.224 157.335 36.128C157.335 33.056 154.815 30.824 151.479 30.824ZM151.479 33.488C153.111 33.488 154.287 34.472 154.287 36.128C154.287 37.784 153.111 38.792 151.479 38.792C149.847 38.792 148.647 37.784 148.647 36.128C148.647 34.472 149.847 33.488 151.479 33.488ZM160.743 29.912V41.864H163.935V29.912H160.743ZM149.175 42.824V51.896H163.935V42.824H160.767V44.936H152.343V42.824H149.175ZM152.343 47.384H160.767V49.352H152.343V47.384ZM168.349 32.12V34.64H177.925V32.12H168.349ZM171.205 38.48V46.016H174.349V38.48H171.205ZM176.653 32.12V33.92C176.653 36.056 176.653 38.624 176.077 42.176L179.197 42.464C179.797 38.768 179.797 36.08 179.797 33.92V32.12H176.653ZM181.693 29.912V52.136H184.885V29.912H181.693ZM183.949 38.84V41.48H187.861V38.84H183.949ZM167.509 47.648C171.373 47.648 176.365 47.552 180.853 46.784L180.685 44.456C176.317 45.008 171.133 45.08 167.221 45.08L167.509 47.648ZM203.135 32.5455V50H199.973V35.6222H199.871L195.788 38.2301V35.3324L200.126 32.5455H203.135ZM209.501 47.9034C208.984 47.9034 208.541 47.7216 208.172 47.358C207.803 46.9886 207.621 46.5455 207.626 46.0284C207.621 45.517 207.803 45.0795 208.172 44.7159C208.541 44.3523 208.984 44.1705 209.501 44.1705C210.001 44.1705 210.436 44.3523 210.805 44.7159C211.18 45.0795 211.371 45.517 211.376 46.0284C211.371 46.375 211.28 46.6903 211.104 46.9744C210.933 47.2585 210.706 47.4858 210.422 47.6562C210.143 47.821 209.837 47.9034 209.501 47.9034ZM209.501 39.2528C208.984 39.2528 208.541 39.071 208.172 38.7074C207.803 38.3381 207.621 37.8949 207.626 37.3778C207.621 36.8665 207.803 36.429 208.172 36.0653C208.541 35.696 208.984 35.5114 209.501 35.5114C210.001 35.5114 210.436 35.696 210.805 36.0653C211.18 36.429 211.371 36.8665 211.376 37.3778C211.371 37.7187 211.28 38.0312 211.104 38.3153C210.933 38.5994 210.706 38.8267 210.422 38.9972C210.143 39.1676 209.837 39.2528 209.501 39.2528ZM221.627 32.5455V50H218.465V35.6222H218.363L214.281 38.2301V35.3324L218.619 32.5455H221.627ZM232.045 32.192V46.592H240.829V32.192H232.045ZM237.853 34.688V44.096H235.021V34.688H237.853ZM247.477 29.912V52.136H250.525V29.912H247.477ZM239.221 37.976V40.544H244.213V37.976H239.221ZM242.941 30.248V51.128H245.941V30.248H242.941ZM262.259 37.376V39.968H265.931V37.376H262.259ZM257.507 31.832V35.576C257.507 39.344 256.355 43.304 253.091 45.32L255.011 47.72C258.563 45.536 259.955 40.616 259.955 35.576V31.832H257.507ZM258.203 31.832V35.432C258.203 40.232 259.307 45.032 262.835 47.216L264.563 44.72C261.539 42.752 260.603 39.056 260.603 35.432V31.832H258.203ZM269.555 29.912V52.136H272.603V29.912H269.555ZM265.043 30.248V51.128H268.019V30.248H265.043ZM280.929 33.416V35.912C280.929 39.68 279.129 43.784 275.409 45.44L277.209 47.96C281.385 46.064 283.473 41.048 283.473 35.912V33.416H280.929ZM281.649 33.416V35.912C281.649 40.856 283.713 45.584 287.937 47.408L289.665 44.888C285.945 43.352 284.169 39.512 284.169 35.912V33.416H281.649ZM276.297 32.048V34.664H288.753V32.048H276.297ZM290.817 29.912V52.136H294.033V29.912H290.817ZM297.679 47.096V49.688H317.791V47.096H297.679ZM306.103 42.896V48.152H309.295V42.896H306.103ZM299.935 31.352V33.872H312.367V36.248H299.983V42.488H303.151V38.744H315.535V31.352H299.935ZM299.983 41.216V43.784H316.039V41.216H299.983ZM340.855 29.912V52.136H343.999V29.912H340.855ZM342.271 38.12V40.736H346.183V38.12H342.271ZM325.807 31.928V47H332.311V31.928H329.743V37.04H328.423V31.928H325.807ZM328.423 39.536H329.743V44.432H328.423V39.536ZM333.175 31.928V47H339.703V31.928H337.087V37.04H335.743V31.928H333.175ZM335.743 39.536H337.087V44.432H335.743V39.536ZM347.765 41.912V44.456H367.901V41.912H347.765ZM350.285 49.208V51.752H365.957V49.208H350.285ZM350.285 45.68V50.312H353.477V45.68H350.285ZM350.237 30.416V32.84H362.309V34.328H350.261V38.888H353.429V36.584H365.453V30.416H350.237ZM350.261 38.144V40.544H365.885V38.144H350.261ZM375.796 40.88V43.424H395.908V40.88H375.796ZM384.508 42.488V47.168H387.724V42.488H384.508ZM378.268 30.848V39.104H393.364V30.848H378.268ZM390.22 33.344V36.608H381.388V33.344H390.22ZM378.124 49.208V51.752H393.7V49.208H378.124ZM378.124 45.296V50.048H381.292V45.296H378.124ZM405.026 31.376C401.546 31.376 398.882 33.656 398.882 36.848C398.882 40.064 401.546 42.344 405.026 42.344C408.53 42.344 411.146 40.064 411.146 36.848C411.146 33.656 408.53 31.376 405.026 31.376ZM405.026 34.112C406.73 34.112 408.026 35.12 408.026 36.848C408.026 38.6 406.73 39.608 405.026 39.608C403.322 39.608 402.026 38.6 402.026 36.848C402.026 35.12 403.322 34.112 405.026 34.112ZM413.234 29.888V52.184H416.426V29.888H413.234ZM398.354 47.672C402.194 47.672 407.426 47.624 412.25 46.664L412.01 44.36C407.33 45.056 401.882 45.104 397.97 45.104L398.354 47.672ZM440.113 29.888V52.112H443.329V29.888H440.113ZM442.489 38.384V41H446.401V38.384H442.489ZM434.281 32.192V32.744C434.281 38.768 431.521 42.848 425.689 45.872L427.465 48.296C434.857 44.576 437.401 38.864 437.401 32.192H434.281ZM426.913 32.192V34.76H435.913V32.192H426.913ZM450.527 35.432V37.976H465.863V35.432H450.527ZM450.527 30.272V36.584H453.695V30.272H450.527ZM448.007 39.872V42.416H468.119V39.872H448.007ZM457.991 43.832C453.191 43.832 450.263 45.32 450.263 47.96C450.263 50.576 453.191 52.088 457.991 52.088C462.791 52.088 465.695 50.576 465.695 47.96C465.695 45.32 462.791 43.832 457.991 43.832ZM457.991 46.28C460.967 46.28 462.479 46.808 462.479 47.96C462.479 49.088 460.967 49.64 457.991 49.64C455.015 49.64 453.503 49.088 453.503 47.96C453.503 46.808 455.015 46.28 457.991 46.28Z" fill="#1E1E1E"/>
</svg>
