<svg width="420" height="24" viewBox="0 0 420 24" fill="none" xmlns="http://www.w3.org/2000/svg">
<path d="M0.984 17.928V20.544H21.096V17.928H0.984ZM9.336 12.984V18.624H12.504V12.984H9.336ZM9.216 2.136V3.744C9.216 6.816 6.504 10.224 1.44 11.04L2.76 13.704C8.568 12.648 12 8.472 12 3.744V2.136H9.216ZM9.84 2.136V3.744C9.84 8.544 13.272 12.624 19.104 13.704L20.424 11.04C15.336 10.224 12.624 6.888 12.624 3.744V2.136H9.84ZM38.2781 0.887999V23.184H41.4941V0.887999H38.2781ZM24.1421 2.664V18H35.0621V2.664H31.8941V8.064H27.3101V2.664H24.1421ZM27.3101 10.536H31.8941V15.432H27.3101V10.536ZM50.1083 4.416V6.912C50.1083 10.56 48.3083 14.712 44.6363 16.44L46.4363 18.96C50.5163 17.04 52.6283 11.928 52.6283 6.912V4.416H50.1083ZM50.7803 4.416V6.912C50.7803 11.64 52.8443 16.512 56.9243 18.408L58.6763 15.888C55.0283 14.208 53.3003 10.272 53.3003 6.912V4.416H50.7803ZM45.5003 3.048V5.664H57.6923V3.048H45.5003ZM59.3243 0.912V23.136H62.5403V0.912H59.3243ZM61.8203 9.384V12.024H65.7563V9.384H61.8203ZM69.5464 10.824V13.368H85.1704V10.824H69.5464ZM67.2184 18.024V20.64H87.3304V18.024H67.2184ZM75.6424 11.976V18.864H78.8344V11.976H75.6424ZM69.5464 2.424V11.928H72.7384V4.992H85.0024V2.424H69.5464ZM111.282 0.912V23.136H114.306V0.912H111.282ZM103.962 8.496V11.088H107.634V8.496H103.962ZM106.794 1.272V22.128H109.77V1.272H106.794ZM99.1616 4.536V6.816C99.1616 10.608 98.0336 14.592 94.7696 16.632L96.6656 18.984C100.194 16.776 101.562 11.808 101.562 6.816V4.536H99.1616ZM99.8816 4.536V6.816C99.8816 11.712 101.178 16.368 104.706 18.456L106.578 16.128C103.362 14.256 102.258 10.512 102.258 6.816V4.536H99.8816ZM95.6096 3.144V5.712H105.522V3.144H95.6096ZM127.24 14.736C122.44 14.736 119.368 16.32 119.368 18.96C119.368 21.552 122.44 23.136 127.24 23.136C132.04 23.136 135.112 21.552 135.112 18.96C135.112 16.32 132.04 14.736 127.24 14.736ZM127.24 17.136C130.24 17.136 131.944 17.76 131.944 18.96C131.944 20.136 130.24 20.736 127.24 20.736C124.24 20.736 122.536 20.136 122.536 18.96C122.536 17.76 124.24 17.136 127.24 17.136ZM119.608 1.896V4.416H133.672V1.896H119.608ZM117.352 10.824V13.368H137.368V10.824H117.352ZM124.768 6.96V11.472H127.936V6.96H124.768ZM131.824 1.896V3.72C131.824 5.448 131.824 7.056 131.224 9.336L134.392 9.672C134.992 7.368 134.992 5.472 134.992 3.72V1.896H131.824ZM150.614 5.808V8.376H156.182V5.808H150.614ZM145.526 1.824C142.166 1.824 139.646 4.056 139.646 7.128C139.646 10.224 142.166 12.432 145.526 12.432C148.862 12.432 151.382 10.224 151.382 7.128C151.382 4.056 148.862 1.824 145.526 1.824ZM145.526 4.488C147.158 4.488 148.334 5.472 148.334 7.128C148.334 8.784 147.158 9.792 145.526 9.792C143.894 9.792 142.694 8.784 142.694 7.128C142.694 5.472 143.894 4.488 145.526 4.488ZM154.79 0.912V12.864H157.982V0.912H154.79ZM143.222 13.824V22.896H157.982V13.824H154.814V15.936H146.39V13.824H143.222ZM146.39 18.384H154.814V20.352H146.39V18.384ZM170.508 9.336V11.904H174.036V9.336H170.508ZM165.348 7.08V7.656C165.348 11.064 164.22 14.712 161.052 16.56L162.852 18.96C166.404 16.92 167.748 12.288 167.748 7.656V7.08H165.348ZM165.972 7.08V7.656C165.972 12.216 167.34 16.56 170.94 18.432L172.668 16.08C169.524 14.4 168.372 11.016 168.372 7.656V7.08H165.972ZM161.892 4.632V7.2H171.804V4.632H161.892ZM165.348 1.656V6.72H168.372V1.656H165.348ZM177.516 0.912V23.136H180.54V0.912H177.516ZM173.028 1.272V22.128H176.004V1.272H173.028ZM185.89 10.824V13.368H201.514V10.824H185.89ZM183.562 18.024V20.64H203.674V18.024H183.562ZM191.986 11.976V18.864H195.178V11.976H191.986ZM185.89 2.424V11.928H189.082V4.992H201.346V2.424H185.89ZM217.353 12.312V17.184H220.545V12.312H217.353ZM227.097 0.912V17.736H230.289V0.912H227.097ZM214.281 20.208V22.752H230.769V20.208H214.281ZM214.281 16.152V20.88H217.473V16.152H214.281ZM211.881 13.272C215.889 13.272 221.097 13.152 225.825 12.36L225.633 10.08C220.977 10.68 215.553 10.728 211.497 10.728L211.881 13.272ZM222.897 13.824V16.008H227.793V13.824H222.897ZM218.649 1.68C215.385 1.68 213.105 3.288 213.105 5.64C213.105 8.016 215.385 9.6 218.649 9.6C221.889 9.6 224.169 8.016 224.169 5.64C224.169 3.288 221.889 1.68 218.649 1.68ZM218.649 4.008C220.113 4.008 221.145 4.56 221.145 5.64C221.145 6.72 220.113 7.272 218.649 7.272C217.161 7.272 216.129 6.72 216.129 5.64C216.129 4.56 217.161 4.008 218.649 4.008ZM247.904 0.912V23.136H251.072V0.912H247.904ZM250.352 9.576V12.24H254.288V9.576H250.352ZM233.552 4.2V6.744H246.488V4.2H233.552ZM240.056 7.992C236.816 7.992 234.416 10.2 234.416 13.296C234.416 16.392 236.816 18.6 240.056 18.6C243.296 18.6 245.696 16.392 245.696 13.296C245.696 10.2 243.296 7.992 240.056 7.992ZM240.056 10.584C241.568 10.584 242.648 11.592 242.648 13.296C242.648 15 241.568 16.008 240.056 16.008C238.544 16.008 237.464 15 237.464 13.296C237.464 11.592 238.544 10.584 240.056 10.584ZM238.448 1.272V5.16H241.64V1.272H238.448ZM258.222 6.912V9.432H273.63V6.912H258.222ZM255.726 11.736V14.28H275.862V11.736H255.726ZM258.222 1.704V8.16H261.39V1.704H258.222ZM258.006 20.112V22.656H273.75V20.112H258.006ZM258.006 16.056V20.784H261.198V16.056H258.006ZM299.813 0.912V23.136H302.837V0.912H299.813ZM292.493 8.496V11.088H296.165V8.496H292.493ZM295.325 1.272V22.128H298.301V1.272H295.325ZM287.693 4.536V6.816C287.693 10.608 286.565 14.592 283.301 16.632L285.197 18.984C288.725 16.776 290.093 11.808 290.093 6.816V4.536H287.693ZM288.413 4.536V6.816C288.413 11.712 289.709 16.368 293.237 18.456L295.109 16.128C291.893 14.256 290.789 10.512 290.789 6.816V4.536H288.413ZM284.141 3.144V5.712H294.053V3.144H284.141ZM314.283 13.128V16.512H317.475V13.128H314.283ZM305.835 11.304V13.824H325.923V11.304H305.835ZM307.587 1.512V4.056H324.147V1.512H307.587ZM307.755 7.392V9.936H323.979V7.392H307.755ZM310.419 2.448V9.048H313.611V2.448H310.419ZM318.123 2.448V9.048H321.315V2.448H318.123ZM308.163 15.672V22.896H323.523V15.672H308.163ZM320.403 18.144V20.376H311.307V18.144H320.403ZM337.969 1.224C332.881 1.224 329.929 2.568 329.929 5.016C329.929 7.464 332.881 8.808 337.969 8.808C343.033 8.808 346.009 7.464 346.009 5.016C346.009 2.568 343.033 1.224 337.969 1.224ZM337.969 3.552C341.185 3.552 342.697 4.032 342.697 5.016C342.697 6.048 341.185 6.48 337.969 6.48C334.753 6.48 333.241 6.048 333.241 5.016C333.241 4.032 334.753 3.552 337.969 3.552ZM327.913 9.84V12.36H348.001V9.84H327.913ZM330.217 13.608V15.984H342.433V17.112H330.241V21.288H333.385V19.32H345.577V13.608H330.217ZM330.241 20.592V22.992H346.153V20.592H330.241ZM370.248 0.935999V17.544H373.44V0.935999H370.248ZM372.528 7.704V10.32H376.392V7.704H372.528ZM355.944 3.24V5.736H369.024V3.24H355.944ZM362.496 6.528C359.28 6.528 357.024 8.28 357.024 10.824C357.024 13.368 359.28 15.096 362.496 15.096C365.688 15.096 367.944 13.368 367.944 10.824C367.944 8.28 365.688 6.528 362.496 6.528ZM362.496 8.952C363.912 8.952 364.896 9.624 364.896 10.824C364.896 12.024 363.912 12.672 362.496 12.672C361.08 12.672 360.096 12.024 360.096 10.824C360.096 9.624 361.08 8.952 362.496 8.952ZM360.888 0.887999V4.464H364.08V0.887999H360.888ZM359.112 20.208V22.752H374.232V20.208H359.112ZM359.112 16.296V21.312H362.304V16.296H359.112ZM388.535 6.816V9.36H394.247V6.816H388.535ZM393.431 0.935999V17.328H396.623V0.935999H393.431ZM381.911 20.208V22.752H397.103V20.208H381.911ZM381.911 15.72V21.672H385.127V15.72H381.911ZM378.959 2.376V13.848H389.471V2.376H386.351V5.76H382.127V2.376H378.959ZM382.127 8.184H386.351V11.328H382.127V8.184ZM408.981 9.096V11.664H412.629V9.096H408.981ZM416.157 0.912V23.136H419.205V0.912H416.157ZM411.621 1.248V22.128H414.621V1.248H411.621ZM405.093 2.472C402.165 2.472 400.293 5.52 400.293 10.536C400.293 15.576 402.165 18.624 405.093 18.624C408.045 18.624 409.941 15.576 409.941 10.536C409.941 5.52 408.045 2.472 405.093 2.472ZM405.093 5.472C406.341 5.472 407.037 7.152 407.037 10.536C407.037 13.944 406.341 15.6 405.093 15.6C403.893 15.6 403.197 13.944 403.197 10.536C403.197 7.152 403.893 5.472 405.093 5.472Z" fill="#1E1E1E"/>
</svg>
