<svg width="708" height="137" viewBox="0 0 708 137" fill="none" xmlns="http://www.w3.org/2000/svg">
<path d="M61.7265 0.303997V59.76H70.2385V0.303997H61.7265ZM66.7825 22.576V29.552H77.2145V22.576H66.7825ZM23.7745 38.256V45.232H26.7825C31.5825 45.232 35.2945 45.168 39.9665 44.208L39.3265 37.296C34.9105 38.192 31.3265 38.256 26.7825 38.256H23.7745ZM23.7745 6.384V41.392H32.2225V13.104H39.0065V6.384H23.7745ZM42.0785 38.256V45.232H45.2145C52.3185 45.232 55.5185 45.104 59.4225 44.08L58.7825 37.168C55.0705 38.128 51.9345 38.256 45.2145 38.256H42.0785ZM42.0785 6.384V41.52H50.4625V13.104H58.0145V6.384H42.0785ZM81.5615 46.256V53.168H135.194V46.256H81.5615ZM104.026 35.056V49.072H112.538V35.056H104.026ZM87.5775 4.272V10.992H120.73V17.328H87.7055V33.968H96.1535V23.984H129.178V4.272H87.5775ZM87.7055 30.576V37.424H130.522V30.576H87.7055ZM179.477 0.303997V59.76H187.989V0.303997H179.477ZM184.533 22.576V29.552H194.965V22.576H184.533ZM141.525 38.256V45.232H144.533C149.333 45.232 153.045 45.168 157.717 44.208L157.077 37.296C152.661 38.192 149.077 38.256 144.533 38.256H141.525ZM141.525 6.384V41.392H149.973V13.104H156.757V6.384H141.525ZM159.829 38.256V45.232H162.965C170.069 45.232 173.269 45.104 177.173 44.08L176.533 37.168C172.821 38.128 169.685 38.256 162.965 38.256H159.829ZM159.829 6.384V41.52H168.213V13.104H175.765V6.384H159.829ZM199.312 46.256V53.168H252.944V46.256H199.312ZM221.776 35.056V49.072H230.288V35.056H221.776ZM205.328 4.272V10.992H238.48V17.328H205.456V33.968H213.904V23.984H246.928V4.272H205.328ZM205.456 30.576V37.424H248.272V30.576H205.456ZM316.814 0.431999V59.696H324.878V0.431999H316.814ZM297.294 20.656V27.568H307.086V20.656H297.294ZM304.846 1.392V57.008H312.782V1.392H304.846ZM284.494 10.096V16.176C284.494 26.288 281.486 36.912 272.782 42.352L277.838 48.624C287.246 42.736 290.894 29.488 290.894 16.176V10.096H284.494ZM286.414 10.096V16.176C286.414 29.232 289.87 41.648 299.278 47.216L304.27 41.008C295.694 36.016 292.75 26.032 292.75 16.176V10.096H286.414ZM275.022 6.384V13.232H301.454V6.384H275.022ZM355.401 33.008V42.032H363.913V33.008H355.401ZM332.873 28.144V34.864H386.441V28.144H332.873ZM337.545 2.032V8.816H381.705V2.032H337.545ZM337.993 17.712V24.496H381.257V17.712H337.993ZM345.097 4.528V22.128H353.609V4.528H345.097ZM365.641 4.528V22.128H374.153V4.528H365.641ZM339.081 39.792V59.056H380.041V39.792H339.081ZM371.721 46.384V52.336H347.465V46.384H371.721ZM413.767 3.888V10.608H450.951V3.888H413.767ZM407.687 29.104V35.952H461.255V29.104H407.687ZM429.895 33.904V59.76H438.471V33.904H429.895ZM446.599 3.888V9.136C446.599 15.28 446.599 22.32 444.295 32.24L452.679 33.2C454.983 22.704 454.983 15.536 454.983 9.136V3.888H446.599ZM509.314 0.431999V59.696H517.442V0.431999H509.314ZM502.21 23.024V29.872H512.002V23.024H502.21ZM496.322 1.328V57.008H504.322V1.328H496.322ZM468.161 6.512V44.912H491.586V6.512H468.161ZM483.65 13.168V38.256H476.098V13.168H483.65ZM536.699 47.6364L536.403 50.1364C536.191 52.0455 535.813 53.9848 535.267 55.9545C534.737 57.9394 534.176 59.7652 533.585 61.4318C532.994 63.0985 532.517 64.4091 532.153 65.3636H526.608C526.82 64.4394 527.108 63.1818 527.472 61.5909C527.85 60 528.214 58.2121 528.562 56.2273C528.911 54.2424 529.146 52.2273 529.267 50.1818L529.426 47.6364H536.699ZM558.685 29.68V36.464H612.317V29.68H558.685ZM581.917 33.968V46.448H590.493V33.968H581.917ZM565.277 2.928V24.944H605.533V2.928H565.277ZM597.149 9.584V18.288H573.597V9.584H597.149ZM564.893 51.888V58.672H606.429V51.888H564.893ZM564.893 41.456V54.128H573.341V41.456H564.893ZM636.632 4.336C627.352 4.336 620.248 10.416 620.248 18.928C620.248 27.504 627.352 33.584 636.632 33.584C645.976 33.584 652.952 27.504 652.952 18.928C652.952 10.416 645.976 4.336 636.632 4.336ZM636.632 11.632C641.176 11.632 644.632 14.32 644.632 18.928C644.632 23.6 641.176 26.288 636.632 26.288C632.088 26.288 628.632 23.6 628.632 18.928C628.632 14.32 632.088 11.632 636.632 11.632ZM658.52 0.367996V59.824H667.032V0.367996H658.52ZM618.84 47.792C629.08 47.792 643.032 47.664 655.896 45.104L655.256 38.96C642.776 40.816 628.248 40.944 617.816 40.944L618.84 47.792ZM683.17 54.5C681.792 54.5 680.61 54.0152 679.625 53.0455C678.64 52.0758 678.155 50.8939 678.17 49.5C678.155 48.1364 678.64 46.9697 679.625 46C680.61 45.0303 681.792 44.5455 683.17 44.5455C684.504 44.5455 685.663 45.0303 686.648 46C687.648 46.9697 688.155 48.1364 688.17 49.5C688.155 50.4242 687.913 51.2652 687.443 52.0227C686.989 52.7803 686.383 53.3864 685.625 53.8409C684.883 54.2803 684.064 54.5 683.17 54.5ZM701.733 54.5C700.354 54.5 699.172 54.0152 698.188 53.0455C697.203 52.0758 696.718 50.8939 696.733 49.5C696.718 48.1364 697.203 46.9697 698.188 46C699.172 45.0303 700.354 44.5455 701.733 44.5455C703.066 44.5455 704.225 45.0303 705.21 46C706.21 46.9697 706.718 48.1364 706.733 49.5C706.718 50.4242 706.475 51.2652 706.006 52.0227C705.551 52.7803 704.945 53.3864 704.188 53.8409C703.445 54.2803 702.627 54.5 701.733 54.5ZM15.6285 81.528C6.7325 81.528 0.3325 89.72 0.3325 102.648C0.3325 115.704 6.7325 123.896 15.6285 123.896C24.4605 123.896 30.9245 115.704 30.9245 102.648C30.9245 89.72 24.4605 81.528 15.6285 81.528ZM15.6285 89.272C19.9805 89.272 22.7965 93.944 22.7965 102.648C22.7965 111.48 19.9805 116.216 15.6285 116.216C11.3405 116.216 8.4605 111.48 8.4605 102.648C8.4605 93.944 11.3405 89.272 15.6285 89.272ZM40.6525 77.368V136.824H49.1005V77.368H40.6525ZM28.4285 98.744V105.592H44.2365V98.744H28.4285ZM99.3355 77.496V110.52H107.848V77.496H99.3355ZM89.8635 83.96V90.744H100.872V83.96H89.8635ZM60.4875 102.584V109.432H65.0315C76.3595 109.432 82.4395 109.24 89.3515 108.152L88.6475 101.304C81.7995 102.52 76.1035 102.584 65.0315 102.584H60.4875ZM60.4235 79.608V86.392H78.0235V91.192H60.4875V108.792H68.9355V97.464H86.4715V79.608H60.4235ZM89.8635 95.736V102.456H100.872V95.736H89.8635ZM68.2955 112.824V136.056H107.848V112.824H99.3995V117.944H76.6795V112.824H68.2955ZM76.6795 124.472H99.3995V129.272H76.6795V124.472ZM122.627 82.424V89.272H160.195V82.424H122.627ZM117.187 122.68V129.592H170.755V122.68H117.187ZM136.131 102.328V126.072H144.643V102.328H136.131ZM157.123 82.424V88.12C157.123 95.224 157.123 103.8 154.755 115.576L163.267 116.536C165.635 103.864 165.635 95.544 165.635 88.12V82.424H157.123ZM232.577 77.432V113.208H241.153V77.432H232.577ZM201.729 115.704V136.056H241.153V115.704H201.729ZM232.769 122.424V129.336H210.049V122.424H232.769ZM192.577 82.68V89.4H228.225V82.68H192.577ZM210.433 91.192C201.601 91.192 195.649 95.416 195.649 101.88C195.649 108.408 201.601 112.504 210.433 112.504C219.329 112.504 225.281 108.408 225.281 101.88C225.281 95.416 219.329 91.192 210.433 91.192ZM210.433 97.464C214.593 97.464 217.153 98.872 217.153 101.88C217.153 104.824 214.593 106.296 210.433 106.296C206.337 106.296 203.713 104.824 203.713 101.88C203.713 98.872 206.337 97.464 210.433 97.464ZM206.145 76.984V87.16H214.721V76.984H206.145ZM250.812 100.408V107.128H304.444V100.408H250.812ZM257.404 90.552V97.208H298.108V90.552H257.404ZM257.404 78.52V96.312H265.852V85.304H297.596V78.52H257.404ZM256.892 110.456V116.856H289.468V120.12H256.956V131.256H265.34V126.136H297.852V110.456H256.892ZM256.956 129.72V136.248H299.388V129.72H256.956ZM323.895 86.776V93.432C323.895 103.48 319.095 114.424 309.174 118.84L313.975 125.56C325.111 120.504 330.679 107.128 330.679 93.432V86.776H323.895ZM325.815 86.776V93.432C325.815 106.616 331.319 119.224 342.583 124.088L347.191 117.368C337.271 113.272 332.535 103.032 332.535 93.432V86.776H325.815ZM311.543 83.128V90.104H344.759V83.128H311.543ZM350.263 77.432V136.696H358.839V77.432H350.263ZM400.565 80.248C391.541 80.248 384.757 86.008 384.757 94.072C384.757 102.2 391.541 107.96 400.565 107.96C409.653 107.96 416.373 102.2 416.373 94.072C416.373 86.008 409.653 80.248 400.565 80.248ZM400.565 87.16C404.917 87.16 408.181 89.784 408.181 94.072C408.181 98.424 404.917 101.048 400.565 101.048C396.277 101.048 393.013 98.424 393.013 94.072C393.013 89.784 396.277 87.16 400.565 87.16ZM422.517 77.432V106.616H431.029V77.432H422.517ZM427.637 89.72V96.632H438.901V89.72H427.637ZM389.621 128.376V135.16H392.885C398.708 135.16 403.317 134.904 408.245 133.176L406.965 126.52C402.613 127.992 398.069 128.376 392.885 128.376H389.621ZM389.621 112.312V130.424H397.877V112.312H389.621ZM406.133 112.504V118.584H435.765V112.504H406.133ZM420.981 120.056C414.197 120.056 409.525 123.32 409.525 128.44C409.525 133.56 414.197 136.76 420.981 136.76C427.701 136.76 432.373 133.56 432.373 128.44C432.373 123.32 427.701 120.056 420.981 120.056ZM420.981 125.88C423.157 125.88 424.821 126.712 424.821 128.44C424.821 130.168 423.157 131 420.981 131C418.677 131 417.076 130.168 417.076 128.44C417.076 126.712 418.677 125.88 420.981 125.88ZM416.885 108.28V117.048H425.141V108.28H416.885ZM470.064 80.376C457.583 80.376 447.92 87.224 447.92 97.528C447.92 107.896 457.583 114.68 470.064 114.68C482.544 114.68 492.208 107.896 492.208 97.528C492.208 87.224 482.544 80.376 470.064 80.376ZM470.064 87.288C478.128 87.288 483.888 91.128 483.888 97.528C483.888 103.864 478.128 107.704 470.064 107.704C462 107.704 456.24 103.864 456.24 97.528C456.24 91.128 462 87.288 470.064 87.288ZM443.312 122.616V129.592H496.944V122.616H443.312ZM533.675 83.32V90.104H545.515V83.32H533.675ZM533.675 94.392V101.112H545.515V94.392H533.675ZM543.211 77.432V111.48H551.723V77.432H543.211ZM515.691 79.544V84.92C515.691 93.432 511.659 101.752 501.739 105.272L506.411 111.928C517.611 107.768 522.667 97.08 522.667 84.92V79.544H515.691ZM517.355 79.544V84.92C517.355 96.696 522.155 107.128 532.779 111.288L537.515 104.568C528.107 101.112 524.267 93.048 524.267 84.92V79.544H517.355ZM516.139 113.72V115.128C516.139 121.016 512.939 127.032 505.195 129.72L509.355 135.928C518.635 132.536 522.539 124.152 522.539 115.128V113.72H516.139ZM518.315 113.72V115.128C518.315 123.96 521.707 132.984 531.115 136.504L534.635 130.296C527.275 127.224 524.459 121.016 524.459 115.128V113.72H518.315ZM537.771 113.72V115.128C537.771 120.44 534.891 126.904 527.595 130.296L531.115 136.504C540.395 132.792 543.851 123.384 543.851 115.128V113.72H537.771ZM539.755 113.72V115.128C539.755 124.6 543.595 132.664 552.939 135.928L557.227 129.72C549.291 127.224 546.155 121.4 546.155 115.128V113.72H539.755ZM605.222 99.832V106.808H615.654V99.832H605.222ZM598.886 77.368V136.632H607.462V77.368H598.886ZM562.79 83.064V119.864H571.302V83.064H562.79ZM562.79 115.128V122.168H567.91C576.614 122.168 586.15 121.656 595.942 119.608L595.046 112.632C585.51 114.552 576.358 115.128 567.91 115.128H562.79ZM631.713 107.512V124.152H640.161V107.512H631.713ZM653.217 107.512V124.152H661.729V107.512H653.217ZM619.937 122.936V129.848H673.569V122.936H619.937ZM646.689 80.312C633.889 80.312 624.545 86.584 624.545 96.248C624.545 105.912 633.889 112.12 646.689 112.12C659.425 112.12 668.833 105.912 668.833 96.248C668.833 86.584 659.425 80.312 646.689 80.312ZM646.689 86.968C654.944 86.968 660.449 90.36 660.449 96.248C660.449 102.072 654.944 105.528 646.689 105.528C638.433 105.528 632.929 102.072 632.929 96.248C632.929 90.36 638.433 86.968 646.689 86.968ZM688.278 117.318V116.727C688.294 113.985 688.551 111.803 689.051 110.182C689.566 108.561 690.294 107.258 691.233 106.273C692.172 105.273 693.316 104.356 694.665 103.523C695.589 102.947 696.415 102.318 697.142 101.636C697.884 100.939 698.468 100.167 698.892 99.3182C699.316 98.4545 699.528 97.4924 699.528 96.4318C699.528 95.2348 699.248 94.197 698.688 93.3182C698.127 92.4394 697.369 91.7576 696.415 91.2727C695.475 90.7879 694.422 90.5455 693.256 90.5455C692.18 90.5455 691.157 90.7803 690.188 91.25C689.233 91.7045 688.438 92.4015 687.801 93.3409C687.18 94.2652 686.831 95.4394 686.756 96.8636H678.665C678.741 93.9848 679.438 91.5758 680.756 89.6364C682.089 87.697 683.847 86.2424 686.028 85.2727C688.225 84.303 690.65 83.8182 693.301 83.8182C696.195 83.8182 698.741 84.3258 700.938 85.3409C703.15 86.3561 704.869 87.803 706.097 89.6818C707.339 91.5455 707.96 93.7576 707.96 96.3182C707.96 98.0455 707.68 99.5909 707.119 100.955C706.574 102.318 705.794 103.53 704.778 104.591C703.763 105.652 702.559 106.598 701.165 107.432C699.938 108.189 698.93 108.977 698.142 109.795C697.369 110.614 696.794 111.576 696.415 112.682C696.051 113.773 695.862 115.121 695.847 116.727V117.318H688.278ZM692.233 131.5C690.869 131.5 689.695 131.015 688.71 130.045C687.725 129.076 687.233 127.894 687.233 126.5C687.233 125.136 687.725 123.97 688.71 123C689.695 122.03 690.869 121.545 692.233 121.545C693.581 121.545 694.748 122.03 695.733 123C696.733 123.97 697.233 125.136 697.233 126.5C697.233 127.424 696.998 128.265 696.528 129.023C696.074 129.78 695.468 130.386 694.71 130.841C693.968 131.28 693.142 131.5 692.233 131.5Z" fill="#1E1E1E"/>
</svg>
