<svg width="780" height="137" viewBox="0 0 780 137" fill="none" xmlns="http://www.w3.org/2000/svg">
<path d="M0.624 45.936V52.848H54.256V45.936H0.624ZM23.088 33.264V47.6H31.6V33.264H23.088ZM6.256 4.208V35.056H48.432V4.208H39.984V13.296H14.704V4.208H6.256ZM14.704 19.952H39.984V28.272H14.704V19.952ZM97.579 0.431999V43.504H106.091V0.431999H97.579ZM103.659 17.392V24.368H113.963V17.392H103.659ZM67.883 51.888V58.672H108.203V51.888H67.883ZM67.883 39.024V54.896H76.395V39.024H67.883ZM75.947 4.208C66.859 4.208 59.819 10.544 59.819 19.312C59.819 28.016 66.859 34.352 75.947 34.352C85.035 34.352 92.075 28.016 92.075 19.312C92.075 10.544 85.035 4.208 75.947 4.208ZM75.947 11.632C80.363 11.632 83.755 14.448 83.755 19.312C83.755 24.112 80.363 26.928 75.947 26.928C71.595 26.928 68.139 24.112 68.139 19.312C68.139 14.448 71.595 11.632 75.947 11.632ZM129.636 47.6364L129.341 50.1364C129.129 52.0455 128.75 53.9848 128.205 55.9545C127.674 57.9394 127.114 59.7652 126.523 61.4318C125.932 63.0985 125.455 64.4091 125.091 65.3636H119.545C119.758 64.4394 120.045 63.1818 120.409 61.5909C120.788 60 121.152 58.2121 121.5 56.2273C121.848 54.2424 122.083 52.2273 122.205 50.1818L122.364 47.6364H129.636ZM158.215 3.696V10.48H195.655V3.696H158.215ZM151.687 26.608V33.456H205.319V26.608H151.687ZM190.663 3.696V8.816C190.663 14.32 190.663 20.208 188.807 28.464L197.191 29.232C199.047 20.72 199.047 14.448 199.047 8.816V3.696H190.663ZM158.407 51.824V58.672H200.711V51.824H158.407ZM158.407 38.512V52.528H166.855V38.512H158.407ZM212.482 39.152V46.192H216.642C225.474 46.192 231.362 46.064 238.146 44.912L237.442 38C230.786 39.024 225.282 39.152 216.642 39.152H212.482ZM212.482 6.576V41.968H220.546V13.36H236.418V6.576H212.482ZM218.242 22.064V28.656H235.266V22.064H218.242ZM253.314 0.431999V59.696H261.442V0.431999H253.314ZM246.21 23.344V30.192H256.002V23.344H246.21ZM240.514 1.328V57.008H248.514V1.328H240.514ZM280.699 47.6364L280.403 50.1364C280.191 52.0455 279.813 53.9848 279.267 55.9545C278.737 57.9394 278.176 59.7652 277.585 61.4318C276.994 63.0985 276.517 64.4091 276.153 65.3636H270.608C270.82 64.4394 271.108 63.1818 271.472 61.5909C271.85 60 272.214 58.2121 272.562 56.2273C272.911 54.2424 273.146 52.2273 273.267 50.1818L273.426 47.6364H280.699ZM304.349 6.512V44.912H327.773V6.512H304.349ZM319.837 13.168V38.256H312.285V13.168H319.837ZM345.501 0.431999V59.696H353.629V0.431999H345.501ZM323.485 21.936V28.784H336.797V21.936H323.485ZM333.405 1.328V57.008H341.405V1.328H333.405ZM402.264 0.495998V43.696H410.84V0.495998H402.264ZM371.352 51.888V58.672H412.312V51.888H371.352ZM371.352 39.536V55.408H379.864V39.536H371.352ZM375.448 3.696V9.456C375.448 17.328 371.288 25.584 361.368 28.976L365.656 35.76C377.176 31.728 382.488 21.04 382.488 9.456V3.696H375.448ZM377.176 3.696V9.456C377.176 20.912 382.36 30.96 393.56 34.736L397.912 27.952C388.184 24.816 384.152 17.2 384.152 9.456V3.696H377.176ZM461.651 0.367996V59.824H470.163V0.367996H461.651ZM451.283 21.104V27.952H463.635V21.104H451.283ZM434.131 9.776V15.024C434.131 26.032 429.459 37.36 419.539 42.032L424.531 48.752C435.603 43.312 440.851 29.488 440.851 15.024V9.776H434.131ZM436.115 9.776V15.024C436.115 29.04 441.235 42.288 452.371 47.536L457.299 40.88C447.379 36.4 442.771 25.456 442.771 15.024V9.776H436.115ZM421.971 6.128V12.976H454.931V6.128H421.971ZM495.249 45.872V52.848H548.881V45.872H495.249ZM499.345 5.552V12.336H544.465V5.552H499.345ZM499.601 30.064V36.912H544.273V30.064H499.601ZM507.409 11.824V30.704H515.921V11.824H507.409ZM527.953 11.824V30.704H536.401V11.824H527.953ZM554.124 46.256V53.168H607.756V46.256H554.124ZM576.588 35.056V49.072H585.1V35.056H576.588ZM560.14 4.272V10.992H593.292V17.328H560.268V33.968H568.716V23.984H601.74V4.272H560.14ZM560.268 30.576V37.424H603.084V30.576H560.268ZM618.439 5.872V12.592H656.007V5.872H618.439ZM612.999 45.04V51.952H666.567V45.04H612.999ZM651.527 5.872V12.912C651.527 20.912 651.527 29.36 649.351 40.752L657.863 41.456C659.975 29.296 659.975 21.232 659.975 12.912V5.872H651.527ZM714.242 0.431999V35.376H722.306V0.431999H714.242ZM707.074 14.32V21.168H716.546V14.32H707.074ZM701.57 1.52V34.928H709.506V1.52H701.57ZM682.178 37.872V59.056H722.306V37.872H682.178ZM713.986 44.528V52.336H690.562V44.528H713.986ZM674.178 26.8V33.456H678.274C687.042 33.456 692.802 33.328 699.522 32.112L698.818 25.456C692.29 26.672 686.786 26.8 678.274 26.8H674.178ZM674.114 3.952V10.544H688.386V15.408H674.178V31.92H682.434V21.616H696.578V3.952H674.114ZM737.42 54.5C736.042 54.5 734.86 54.0152 733.875 53.0455C732.89 52.0758 732.405 50.8939 732.42 49.5C732.405 48.1364 732.89 46.9697 733.875 46C734.86 45.0303 736.042 44.5455 737.42 44.5455C738.754 44.5455 739.913 45.0303 740.898 46C741.898 46.9697 742.405 48.1364 742.42 49.5C742.405 50.4242 742.163 51.2652 741.693 52.0227C741.239 52.7803 740.633 53.3864 739.875 53.8409C739.133 54.2803 738.314 54.5 737.42 54.5ZM755.983 54.5C754.604 54.5 753.422 54.0152 752.438 53.0455C751.453 52.0758 750.968 50.8939 750.983 49.5C750.968 48.1364 751.453 46.9697 752.438 46C753.422 45.0303 754.604 44.5455 755.983 44.5455C757.316 44.5455 758.475 45.0303 759.46 46C760.46 46.9697 760.968 48.1364 760.983 49.5C760.968 50.4242 760.725 51.2652 760.256 52.0227C759.801 52.7803 759.195 53.3864 758.438 53.8409C757.695 54.2803 756.877 54.5 755.983 54.5ZM774.545 54.5C773.167 54.5 771.985 54.0152 771 53.0455C770.015 52.0758 769.53 50.8939 769.545 49.5C769.53 48.1364 770.015 46.9697 771 46C771.985 45.0303 773.167 44.5455 774.545 44.5455C775.879 44.5455 777.038 45.0303 778.023 46C779.023 46.9697 779.53 48.1364 779.545 49.5C779.53 50.4242 779.288 51.2652 778.818 52.0227C778.364 52.7803 777.758 53.3864 777 53.8409C776.258 54.2803 775.439 54.5 774.545 54.5ZM30.32 93.048V99.832H45.296V93.048H30.32ZM41.648 77.496V120.76H50.16V77.496H41.648ZM11.056 128.888V135.672H51.504V128.888H11.056ZM11.056 116.472V132.344H19.568V116.472H11.056ZM16.944 81.016C8.112 81.016 1.264 87.352 1.264 96.184C1.264 104.952 8.112 111.352 16.944 111.352C25.712 111.352 32.56 104.952 32.56 96.184C32.56 87.352 25.712 81.016 16.944 81.016ZM16.944 88.44C21.168 88.44 24.432 91.256 24.432 96.184C24.432 101.048 21.168 103.928 16.944 103.928C12.656 103.928 9.392 101.048 9.392 96.184C9.392 91.256 12.656 88.44 16.944 88.44ZM102.251 77.432V136.696H110.315V77.432H102.251ZM82.731 97.656V104.568H92.523V97.656H82.731ZM90.283 78.392V134.008H98.219V78.392H90.283ZM69.931 87.096V93.176C69.931 103.288 66.923 113.912 58.219 119.352L63.275 125.624C72.683 119.736 76.331 106.488 76.331 93.176V87.096H69.931ZM71.851 87.096V93.176C71.851 106.232 75.307 118.648 84.715 124.216L89.707 118.008C81.131 113.016 78.187 103.032 78.187 93.176V87.096H71.851ZM60.459 83.384V90.232H86.891V83.384H60.459ZM172.073 77.368V136.824H180.649V77.368H172.073ZM178.729 99.32V106.296H189.225V99.32H178.729ZM136.489 115.512V122.552H141.481C151.785 122.552 159.913 122.296 168.873 120.696L168.041 113.656C159.337 115.192 151.465 115.512 141.481 115.512H136.489ZM136.489 82.872V118.904H144.937V89.72H164.137V82.872H136.489ZM230.567 80.824V84.856C230.567 93.944 223.335 101.496 209.191 105.336L212.519 111.928C229.863 107.192 239.463 96.44 239.463 80.824H230.567ZM212.455 80.824V87.544H236.455V80.824H212.455ZM250.023 77.432V110.584H258.535V77.432H250.023ZM239.783 91.448V98.36H251.239V91.448H239.783ZM219.495 112.952V136.056H258.535V112.952H219.495ZM250.151 119.672V129.336H227.879V119.672H250.151ZM278.498 80.824V87.608C278.498 94.328 275.234 101.688 266.978 105.336L271.458 111.928C281.122 107.768 285.154 97.72 285.154 87.608V80.824H278.498ZM280.034 80.824V87.608C280.034 97.464 283.938 106.552 293.154 110.328L297.634 103.864C289.826 100.6 286.69 94.2 286.69 87.608V80.824H280.034ZM310.242 77.496V113.4H318.306V77.496H310.242ZM303.138 91.832V98.744H312.546V91.832H303.138ZM297.698 78.392V113.08H305.634V78.392H297.698ZM277.602 115.96V122.744H309.858V136.696H318.306V115.96H277.602ZM364.701 77.432V136.696H373.149V77.432H364.701ZM371.229 100.536V107.64H381.725V100.536H371.229ZM326.429 86.2V92.984H360.925V86.2H326.429ZM343.773 96.312C335.133 96.312 328.733 102.2 328.733 110.456C328.733 118.712 335.133 124.6 343.773 124.6C352.413 124.6 358.813 118.712 358.813 110.456C358.813 102.2 352.413 96.312 343.773 96.312ZM343.773 103.224C347.805 103.224 350.685 105.912 350.685 110.456C350.685 115 347.805 117.688 343.773 117.688C339.741 117.688 336.861 115 336.861 110.456C336.861 105.912 339.741 103.224 343.773 103.224ZM339.485 78.392V88.76H347.997V78.392H339.485ZM391.064 82.424V89.272H428.632V82.424H391.064ZM385.624 122.68V129.592H439.192V122.68H385.624ZM404.568 102.328V126.072H413.08V102.328H404.568ZM425.56 82.424V88.12C425.56 95.224 425.56 103.8 423.192 115.576L431.704 116.536C434.072 103.864 434.072 95.544 434.072 88.12V82.424H425.56ZM473.622 87.288V89.464C473.622 95.864 469.462 102.2 459.862 104.76L463.766 111.416C475.094 108.344 480.47 99.512 480.47 89.464V87.288H473.622ZM475.222 87.288V89.464C475.222 99 480.534 107.448 491.99 110.328L495.766 103.8C486.23 101.368 482.134 95.352 482.134 89.464V87.288H475.222ZM461.974 83.128V89.784H493.782V83.128H461.974ZM473.622 77.24V86.2H482.134V77.24H473.622ZM498.454 77.432V111.16H506.966V77.432H498.454ZM504.598 90.68V97.656H514.838V90.68H504.598ZM483.35 116.536V117.944C483.35 123.064 477.846 128.568 465.494 130.04L468.566 136.504C482.838 134.648 490.518 127.16 490.518 117.944V116.536H483.35ZM485.206 116.536V117.944C485.206 126.904 492.886 134.776 507.222 136.632L510.23 130.168C498.07 128.568 492.438 122.872 492.438 117.944V116.536H485.206ZM467.99 113.72V120.44H507.734V113.72H467.99ZM533.457 86.776V93.432C533.457 103.48 528.657 114.424 518.737 118.84L523.537 125.56C534.673 120.504 540.241 107.128 540.241 93.432V86.776H533.457ZM535.377 86.776V93.432C535.377 106.616 540.881 119.224 552.145 124.088L556.753 117.368C546.833 113.272 542.097 103.032 542.097 93.432V86.776H535.377ZM521.105 83.128V90.104H554.321V83.128H521.105ZM559.825 77.432V136.696H568.401V77.432H559.825ZM587.591 117.318V116.727C587.606 113.985 587.864 111.803 588.364 110.182C588.879 108.561 589.606 107.258 590.545 106.273C591.485 105.273 592.629 104.356 593.977 103.523C594.902 102.947 595.727 102.318 596.455 101.636C597.197 100.939 597.78 100.167 598.205 99.3182C598.629 98.4545 598.841 97.4924 598.841 96.4318C598.841 95.2348 598.561 94.197 598 93.3182C597.439 92.4394 596.682 91.7576 595.727 91.2727C594.788 90.7879 593.735 90.5455 592.568 90.5455C591.492 90.5455 590.47 90.7803 589.5 91.25C588.545 91.7045 587.75 92.4015 587.114 93.3409C586.492 94.2652 586.144 95.4394 586.068 96.8636H577.977C578.053 93.9848 578.75 91.5758 580.068 89.6364C581.402 87.697 583.159 86.2424 585.341 85.2727C587.538 84.303 589.962 83.8182 592.614 83.8182C595.508 83.8182 598.053 84.3258 600.25 85.3409C602.462 86.3561 604.182 87.803 605.409 89.6818C606.652 91.5455 607.273 93.7576 607.273 96.3182C607.273 98.0455 606.992 99.5909 606.432 100.955C605.886 102.318 605.106 103.53 604.091 104.591C603.076 105.652 601.871 106.598 600.477 107.432C599.25 108.189 598.242 108.977 597.455 109.795C596.682 110.614 596.106 111.576 595.727 112.682C595.364 113.773 595.174 115.121 595.159 116.727V117.318H587.591ZM591.545 131.5C590.182 131.5 589.008 131.015 588.023 130.045C587.038 129.076 586.545 127.894 586.545 126.5C586.545 125.136 587.038 123.97 588.023 123C589.008 122.03 590.182 121.545 591.545 121.545C592.894 121.545 594.061 122.03 595.045 123C596.045 123.97 596.545 125.136 596.545 126.5C596.545 127.424 596.311 128.265 595.841 129.023C595.386 129.78 594.78 130.386 594.023 130.841C593.28 131.28 592.455 131.5 591.545 131.5Z" fill="#1E1E1E"/>
</svg>
