<svg width="631" height="137" viewBox="0 0 631 137" fill="none" xmlns="http://www.w3.org/2000/svg">
<path d="M44.376 0.431999V59.696H52.44V0.431999H44.376ZM24.856 20.656V27.568H34.648V20.656H24.856ZM32.408 1.392V57.008H40.344V1.392H32.408ZM12.056 10.096V16.176C12.056 26.288 9.048 36.912 0.344 42.352L5.4 48.624C14.808 42.736 18.456 29.488 18.456 16.176V10.096H12.056ZM13.976 10.096V16.176C13.976 29.232 17.432 41.648 26.84 47.216L31.832 41.008C23.256 36.016 20.312 26.032 20.312 16.176V10.096H13.976ZM2.584 6.384V13.232H29.016V6.384H2.584ZM82.963 33.008V42.032H91.475V33.008H82.963ZM60.435 28.144V34.864H114.003V28.144H60.435ZM65.107 2.032V8.816H109.267V2.032H65.107ZM65.555 17.712V24.496H108.819V17.712H65.555ZM72.659 4.528V22.128H81.171V4.528H72.659ZM93.203 4.528V22.128H101.715V4.528H93.203ZM66.643 39.792V59.056H107.603V39.792H66.643ZM99.283 46.384V52.336H75.027V46.384H99.283ZM119.374 27.504V34.416H173.006V27.504H119.374ZM125.838 16.688V23.408H166.926V16.688H125.838ZM125.838 2.032V20.016H134.286V8.816H166.606V2.032H125.838ZM145.998 37.936C133.198 37.936 125.39 41.84 125.39 48.816C125.39 55.792 133.198 59.696 145.998 59.696C158.798 59.696 166.542 55.792 166.542 48.816C166.542 41.84 158.798 37.936 145.998 37.936ZM145.998 44.336C153.934 44.336 157.966 45.808 157.966 48.816C157.966 51.888 153.934 53.232 145.998 53.232C138.062 53.232 134.03 51.888 134.03 48.816C134.03 45.808 138.062 44.336 145.998 44.336ZM178.185 32.176V38.96H231.881V32.176H178.185ZM184.777 1.584V8.048H216.969V11.632H184.841V24.048H193.289V17.648H225.353V1.584H184.777ZM184.841 21.488V27.952H226.505V21.488H184.841ZM200.777 24.624V35.888H209.289V24.624H200.777ZM184.137 42.288V49.008H217.225V59.504H225.737V42.288H184.137ZM1.56 106.68V113.528H55.128V106.68H1.56ZM24.024 99.128V108.152H32.536V99.128H24.024ZM7.512 117.56V124.28H40.152V136.696H48.664V117.56H7.512ZM8.408 78.904V101.816H48.344V78.904H39.896V84.152H16.792V78.904H8.408ZM16.792 90.488H39.896V95.16H16.792V90.488ZM73.491 82.936V86.712C73.491 93.816 69.267 100.984 59.411 103.992L63.571 110.712C75.091 107.192 80.403 97.528 80.403 86.712V82.936H73.491ZM75.155 82.936V86.648C75.155 96.888 80.467 106.168 91.795 109.432L95.763 102.84C86.163 100.024 82.131 93.24 82.131 86.648V82.936H75.155ZM61.651 80.632V87.416H93.715V80.632H61.651ZM98.579 77.432V110.136H107.091V77.432H98.579ZM104.723 89.976V96.952H114.963V89.976H104.723ZM68.371 112.504V136.056H107.091V112.504H98.643V117.752H76.819V112.504H68.371ZM76.819 124.28H98.643V129.336H76.819V124.28ZM157.454 77.496V121.784H165.966V77.496H157.454ZM163.534 95.544V102.52H173.838V95.544H163.534ZM119.31 83.64V90.296H154.19V83.64H119.31ZM136.782 92.408C128.206 92.408 122.19 97.08 122.19 103.864C122.19 110.648 128.206 115.256 136.782 115.256C145.294 115.256 151.31 110.648 151.31 103.864C151.31 97.08 145.294 92.408 136.782 92.408ZM136.782 98.872C140.558 98.872 143.182 100.664 143.182 103.864C143.182 107.064 140.558 108.792 136.782 108.792C133.006 108.792 130.382 107.064 130.382 103.864C130.382 100.664 133.006 98.872 136.782 98.872ZM132.494 77.368V86.904H141.006V77.368H132.494ZM127.758 128.888V135.672H168.078V128.888H127.758ZM127.758 118.456V131.832H136.27V118.456H127.758ZM226.124 89.528V96.248H240.78V89.528H226.124ZM207.5 82.424V85.688C207.5 92.024 203.084 99.192 193.548 102.264L197.58 108.856C208.908 105.528 214.412 95.672 214.412 85.688V82.424H207.5ZM209.228 82.424V85.688C209.228 95.544 214.412 104.44 225.484 107.64L229.388 100.984C220.172 98.296 216.14 91.896 216.14 85.688V82.424H209.228ZM195.788 79.608V86.392H227.66V79.608H195.788ZM235.148 77.432V107.512H243.66V77.432H235.148ZM204.492 109.88V116.472H235.212V119.8H204.556V133.368H213.004V125.944H243.66V109.88H204.492ZM204.556 129.528V136.12H245.324V129.528H204.556ZM265.927 92.792V95.864C265.927 104.76 261.511 114.808 251.847 119.224L256.455 125.752C267.207 120.952 272.519 108.344 272.519 95.864V92.792H265.927ZM267.783 92.792V95.864C267.783 107.768 272.839 119.928 283.271 124.728L287.815 118.264C278.535 113.784 274.375 104.312 274.375 95.864V92.792H267.783ZM253.895 87.096V93.816H286.151V87.096H253.895ZM265.863 78.776V90.552H274.375V78.776H265.863ZM290.823 77.432V136.696H299.399V77.432H290.823ZM297.479 100.408V107.448H307.975V100.408H297.479ZM334.213 112.12V136.056H355.845V112.12H347.973V117.944H342.085V112.12H334.213ZM342.085 124.088H347.973V129.656H342.085V124.088ZM364.997 111.672V116.088C364.997 121.656 362.117 127.352 355.013 130.296L359.173 136.632C367.941 133.24 371.461 124.792 371.461 116.088V111.672H364.997ZM366.981 111.672V116.088C366.981 125.432 370.309 133.432 379.269 136.632L383.493 130.296C376.261 127.864 373.445 122.232 373.445 116.088V111.672H366.981ZM357.637 90.104V97.016H372.485V90.104H357.637ZM344.069 79.672C335.109 79.672 328.389 85.432 328.389 93.624C328.389 101.816 335.109 107.64 344.069 107.64C352.965 107.64 359.685 101.816 359.685 93.624C359.685 85.432 352.965 79.672 344.069 79.672ZM344.069 86.648C348.421 86.648 351.557 89.272 351.557 93.624C351.557 97.976 348.421 100.664 344.069 100.664C339.717 100.664 336.517 97.976 336.517 93.624C336.517 89.272 339.717 86.648 344.069 86.648ZM368.773 77.432V108.792H377.285V77.432H368.773ZM427.2 77.368V136.824H435.776V77.368H427.2ZM403.84 81.528C394.88 81.528 388.288 89.72 388.288 102.648C388.288 115.704 394.88 123.896 403.84 123.896C412.8 123.896 419.392 115.704 419.392 102.648C419.392 89.72 412.8 81.528 403.84 81.528ZM403.84 89.272C408.256 89.272 411.2 93.944 411.2 102.648C411.2 111.48 408.256 116.216 403.84 116.216C399.424 116.216 396.416 111.48 396.416 102.648C396.416 93.944 399.424 89.272 403.84 89.272ZM499.454 77.496V121.784H507.966V77.496H499.454ZM505.534 95.544V102.52H515.838V95.544H505.534ZM461.31 83.64V90.296H496.19V83.64H461.31ZM478.782 92.408C470.206 92.408 464.19 97.08 464.19 103.864C464.19 110.648 470.206 115.256 478.782 115.256C487.294 115.256 493.31 110.648 493.31 103.864C493.31 97.08 487.294 92.408 478.782 92.408ZM478.782 98.872C482.558 98.872 485.182 100.664 485.182 103.864C485.182 107.064 482.558 108.792 478.782 108.792C475.006 108.792 472.382 107.064 472.382 103.864C472.382 100.664 475.006 98.872 478.782 98.872ZM474.494 77.368V86.904H483.006V77.368H474.494ZM469.758 128.888V135.672H510.078V128.888H469.758ZM469.758 118.456V131.832H478.27V118.456H469.758ZM548.217 93.176V99.96H563.449V93.176H548.217ZM561.273 77.496V121.208H569.785V77.496H561.273ZM530.553 128.888V135.672H571.065V128.888H530.553ZM530.553 116.92V132.792H539.129V116.92H530.553ZM522.681 81.336V111.928H550.713V81.336H542.393V90.36H531.129V81.336H522.681ZM531.129 96.824H542.393V105.208H531.129V96.824ZM602.74 99.256V106.104H612.468V99.256H602.74ZM621.876 77.432V136.696H630.004V77.432H621.876ZM609.78 78.328V134.008H617.78V78.328H609.78ZM592.372 81.592C584.564 81.592 579.572 89.72 579.572 103.096C579.572 116.536 584.564 124.664 592.372 124.664C600.244 124.664 605.3 116.536 605.3 103.096C605.3 89.72 600.244 81.592 592.372 81.592ZM592.372 89.592C595.7 89.592 597.556 94.072 597.556 103.096C597.556 112.184 595.7 116.6 592.372 116.6C589.172 116.6 587.316 112.184 587.316 103.096C587.316 94.072 589.172 89.592 592.372 89.592Z" fill="#1E1E1E"/>
</svg>
