<svg width="768" height="137" viewBox="0 0 768 137" fill="none" xmlns="http://www.w3.org/2000/svg">
<path d="M44.376 0.431999V59.696H52.44V0.431999H44.376ZM24.856 20.656V27.568H34.648V20.656H24.856ZM32.408 1.392V57.008H40.344V1.392H32.408ZM12.056 10.096V16.176C12.056 26.288 9.048 36.912 0.344 42.352L5.4 48.624C14.808 42.736 18.456 29.488 18.456 16.176V10.096H12.056ZM13.976 10.096V16.176C13.976 29.232 17.432 41.648 26.84 47.216L31.832 41.008C23.256 36.016 20.312 26.032 20.312 16.176V10.096H13.976ZM2.584 6.384V13.232H29.016V6.384H2.584ZM82.963 33.008V42.032H91.475V33.008H82.963ZM60.435 28.144V34.864H114.003V28.144H60.435ZM65.107 2.032V8.816H109.267V2.032H65.107ZM65.555 17.712V24.496H108.819V17.712H65.555ZM72.659 4.528V22.128H81.171V4.528H72.659ZM93.203 4.528V22.128H101.715V4.528H93.203ZM66.643 39.792V59.056H107.603V39.792H66.643ZM99.283 46.384V52.336H75.027V46.384H99.283ZM135.185 29.68V36.464H188.817V29.68H135.185ZM158.417 33.968V46.448H166.993V33.968H158.417ZM141.777 2.928V24.944H182.033V2.928H141.777ZM173.649 9.584V18.288H150.097V9.584H173.649ZM141.393 51.888V58.672H182.929V51.888H141.393ZM141.393 41.456V54.128H149.841V41.456H141.393ZM213.132 4.336C203.852 4.336 196.748 10.416 196.748 18.928C196.748 27.504 203.852 33.584 213.132 33.584C222.476 33.584 229.452 27.504 229.452 18.928C229.452 10.416 222.476 4.336 213.132 4.336ZM213.132 11.632C217.676 11.632 221.132 14.32 221.132 18.928C221.132 23.6 217.676 26.288 213.132 26.288C208.588 26.288 205.132 23.6 205.132 18.928C205.132 14.32 208.588 11.632 213.132 11.632ZM235.02 0.367996V59.824H243.532V0.367996H235.02ZM195.34 47.792C205.58 47.792 219.532 47.664 232.396 45.104L231.756 38.96C219.276 40.816 204.748 40.944 194.316 40.944L195.34 47.792ZM252.935 26.992V33.2H306.631V26.992H252.935ZM258.951 36.144V41.904H291.847V44.848H259.079V55.28H267.527V50.224H300.231V36.144H258.951ZM259.079 53.488V59.248H301.895V53.488H259.079ZM259.527 1.456V7.152H291.719V10.096H259.591V20.272H268.039V15.408H300.103V1.456H259.527ZM259.591 18.48V24.24H301.191V18.48H259.591ZM365.701 0.431999V59.696H374.149V0.431999H365.701ZM372.229 23.536V30.64H382.725V23.536H372.229ZM327.429 9.2V15.984H361.925V9.2H327.429ZM344.773 19.312C336.133 19.312 329.733 25.2 329.733 33.456C329.733 41.712 336.133 47.6 344.773 47.6C353.413 47.6 359.813 41.712 359.813 33.456C359.813 25.2 353.413 19.312 344.773 19.312ZM344.773 26.224C348.805 26.224 351.685 28.912 351.685 33.456C351.685 38 348.805 40.688 344.773 40.688C340.741 40.688 337.861 38 337.861 33.456C337.861 28.912 340.741 26.224 344.773 26.224ZM340.485 1.392V11.76H348.997V1.392H340.485ZM392.064 5.424V12.272H429.632V5.424H392.064ZM386.624 45.68V52.592H440.192V45.68H386.624ZM405.568 25.328V49.072H414.08V25.328H405.568ZM426.56 5.424V11.12C426.56 18.224 426.56 26.8 424.192 38.576L432.704 39.536C435.072 26.864 435.072 18.544 435.072 11.12V5.424H426.56ZM486.139 0.495998V33.264H494.715V0.495998H486.139ZM459.323 2.48V8.176C459.323 15.408 455.099 22.832 445.115 25.84L449.275 32.496C460.859 28.976 466.363 19.12 466.363 8.176V2.48H459.323ZM461.051 2.48V8.176C461.051 18.928 466.363 28.144 477.755 31.536L481.851 24.816C472.187 22.064 468.027 15.216 468.027 8.176V2.48H461.051ZM454.651 35.952V42.672H494.971V35.952H454.651ZM454.075 52.336V59.056H495.547V52.336H454.075ZM461.627 38.448V56.304H469.947V38.448H461.627ZM479.675 38.448V56.304H488.059V38.448H479.675ZM504.31 30.64V37.424H557.878V30.64H504.31ZM510.774 51.888V58.672H551.862V51.888H510.774ZM510.774 41.392V54.064H519.286V41.392H510.774ZM531.126 2.16C518.198 2.16 509.686 6.832 509.686 14.384C509.686 21.936 518.198 26.608 531.126 26.608C543.99 26.608 552.566 21.936 552.566 14.384C552.566 6.832 543.99 2.16 531.126 2.16ZM531.126 8.944C539.126 8.944 543.798 10.8 543.798 14.384C543.798 18.032 539.126 19.824 531.126 19.824C523.126 19.824 518.454 18.032 518.454 14.384C518.454 10.8 523.126 8.944 531.126 8.944ZM606.001 0.431999V59.696H614.129V0.431999H606.001ZM583.473 22.064V28.912H597.233V22.064H583.473ZM593.777 1.456V57.072H601.713V1.456H593.777ZM564.913 39.536V46.576H569.009C577.649 46.576 583.537 46.32 590.129 44.976L589.489 38.064C582.961 39.344 577.393 39.536 569.009 39.536H564.913ZM564.913 7.088V42.48H573.297V13.872H587.505V7.088H564.913ZM633.386 47.6364L633.091 50.1364C632.879 52.0455 632.5 53.9848 631.955 55.9545C631.424 57.9394 630.864 59.7652 630.273 61.4318C629.682 63.0985 629.205 64.4091 628.841 65.3636H623.295C623.508 64.4394 623.795 63.1818 624.159 61.5909C624.538 60 624.902 58.2121 625.25 56.2273C625.598 54.2424 625.833 52.2273 625.955 50.1818L626.114 47.6364H633.386ZM1.56 106.68V113.528H55.128V106.68H1.56ZM24.024 99.128V108.152H32.536V99.128H24.024ZM7.512 117.56V124.28H40.152V136.696H48.664V117.56H7.512ZM8.408 78.904V101.816H48.344V78.904H39.896V84.152H16.792V78.904H8.408ZM16.792 90.488H39.896V95.16H16.792V90.488ZM73.491 82.936V86.712C73.491 93.816 69.267 100.984 59.411 103.992L63.571 110.712C75.091 107.192 80.403 97.528 80.403 86.712V82.936H73.491ZM75.155 82.936V86.648C75.155 96.888 80.467 106.168 91.795 109.432L95.763 102.84C86.163 100.024 82.131 93.24 82.131 86.648V82.936H75.155ZM61.651 80.632V87.416H93.715V80.632H61.651ZM98.579 77.432V110.136H107.091V77.432H98.579ZM104.723 89.976V96.952H114.963V89.976H104.723ZM68.371 112.504V136.056H107.091V112.504H98.643V117.752H76.819V112.504H68.371ZM76.819 124.28H98.643V129.336H76.819V124.28ZM157.326 77.432V136.696H165.774V77.432H157.326ZM163.854 100.536V107.64H174.35V100.536H163.854ZM119.054 86.2V92.984H153.55V86.2H119.054ZM136.398 96.312C127.758 96.312 121.358 102.2 121.358 110.456C121.358 118.712 127.758 124.6 136.398 124.6C145.038 124.6 151.438 118.712 151.438 110.456C151.438 102.2 145.038 96.312 136.398 96.312ZM136.398 103.224C140.43 103.224 143.31 105.912 143.31 110.456C143.31 115 140.43 117.688 136.398 117.688C132.366 117.688 129.486 115 129.486 110.456C129.486 105.912 132.366 103.224 136.398 103.224ZM132.11 78.392V88.76H140.622V78.392H132.11ZM183.689 82.424V89.272H221.257V82.424H183.689ZM178.249 122.68V129.592H231.817V122.68H178.249ZM197.193 102.328V126.072H205.705V102.328H197.193ZM218.185 82.424V88.12C218.185 95.224 218.185 103.8 215.817 115.576L224.329 116.536C226.697 103.864 226.697 95.544 226.697 88.12V82.424H218.185ZM258.951 103.608V110.52H300.935V103.608H258.951ZM252.999 122.744V129.72H306.631V122.744H252.999ZM258.951 82.616V106.424H267.463V82.616H258.951ZM352.514 77.496V121.144H361.09V77.496H352.514ZM321.41 128.888V135.672H362.498V128.888H321.41ZM321.41 117.496V132.344H329.922V117.496H321.41ZM314.882 106.808V113.656H320.066C332.738 113.656 340.29 113.336 348.61 111.736L347.714 104.952C339.65 106.488 332.418 106.808 320.066 106.808H314.882ZM314.818 81.336V88.12H333.698V94.008H314.882V108.728H323.266V100.28H342.082V81.336H314.818ZM418.624 89.528V96.248H433.28V89.528H418.624ZM400 82.424V85.688C400 92.024 395.584 99.192 386.048 102.264L390.08 108.856C401.408 105.528 406.912 95.672 406.912 85.688V82.424H400ZM401.728 82.424V85.688C401.728 95.544 406.912 104.44 417.984 107.64L421.888 100.984C412.672 98.296 408.64 91.896 408.64 85.688V82.424H401.728ZM388.288 79.608V86.392H420.16V79.608H388.288ZM427.648 77.432V107.512H436.16V77.432H427.648ZM396.992 109.88V116.472H427.712V119.8H397.056V133.368H405.504V125.944H436.16V109.88H396.992ZM397.056 129.528V136.12H437.824V129.528H397.056ZM458.427 92.792V95.864C458.427 104.76 454.011 114.808 444.347 119.224L448.955 125.752C459.707 120.952 465.019 108.344 465.019 95.864V92.792H458.427ZM460.283 92.792V95.864C460.283 107.768 465.339 119.928 475.771 124.728L480.315 118.264C471.035 113.784 466.875 104.312 466.875 95.864V92.792H460.283ZM446.395 87.096V93.816H478.651V87.096H446.395ZM458.363 78.776V90.552H466.875V78.776H458.363ZM483.323 77.432V136.696H491.899V77.432H483.323ZM489.979 100.408V107.448H500.475V100.408H489.979ZM542.198 77.368V136.632H550.774V77.368H542.198ZM548.534 100.024V107H558.966V100.024H548.534ZM526.646 83.512V84.984C526.646 101.048 519.286 111.928 503.734 119.992L508.47 126.456C528.182 116.536 534.966 101.304 534.966 83.512H526.646ZM506.998 83.512V90.36H530.998V83.512H506.998ZM585.972 110.584V116.664H597.108V120.184H586.036V131.768H594.1V125.88H605.172V110.584H585.972ZM586.036 129.848V136.056H589.556C598.196 136.056 602.484 135.992 607.604 134.968L606.9 128.824C601.908 129.784 597.94 129.848 589.556 129.848H586.036ZM606.772 112.568V118.648H632.052V112.568H606.772ZM619.252 120.056C613.236 120.056 608.756 123.384 608.756 128.44C608.756 133.496 613.236 136.76 619.252 136.76C625.268 136.76 629.748 133.496 629.748 128.44C629.748 123.384 625.268 120.056 619.252 120.056ZM619.252 125.752C621.172 125.752 622.644 126.584 622.644 128.44C622.644 130.296 621.172 131.128 619.252 131.128C617.332 131.128 615.86 130.296 615.86 128.44C615.86 126.584 617.332 125.752 619.252 125.752ZM615.22 108.152V116.728H623.476V108.152H615.22ZM619.764 77.432V106.296H628.34V77.432H619.764ZM592.948 78.84V83.256C592.948 90.424 588.724 97.656 578.74 100.664L582.836 107.32C594.42 103.864 599.924 94.136 599.924 83.256V78.84H592.948ZM594.74 78.84V83.256C594.74 93.816 600.116 102.776 611.444 106.04L615.476 99.384C605.876 96.76 601.652 90.168 601.652 83.256V78.84H594.74ZM654.191 81.528C645.295 81.528 638.895 89.72 638.895 102.648C638.895 115.704 645.295 123.896 654.191 123.896C663.023 123.896 669.487 115.704 669.487 102.648C669.487 89.72 663.023 81.528 654.191 81.528ZM654.191 89.272C658.543 89.272 661.359 93.944 661.359 102.648C661.359 111.48 658.543 116.216 654.191 116.216C649.903 116.216 647.023 111.48 647.023 102.648C647.023 93.944 649.903 89.272 654.191 89.272ZM679.215 77.368V136.824H687.663V77.368H679.215ZM666.991 98.744V105.592H682.799V98.744H666.991ZM708.65 107.512V124.152H717.098V107.512H708.65ZM730.154 107.512V124.152H738.666V107.512H730.154ZM696.874 122.936V129.848H750.506V122.936H696.874ZM723.626 80.312C710.826 80.312 701.482 86.584 701.482 96.248C701.482 105.912 710.826 112.12 723.626 112.12C736.362 112.12 745.77 105.912 745.77 96.248C745.77 86.584 736.362 80.312 723.626 80.312ZM723.626 86.968C731.882 86.968 737.386 90.36 737.386 96.248C737.386 102.072 731.882 105.528 723.626 105.528C715.37 105.528 709.866 102.072 709.866 96.248C709.866 90.36 715.37 86.968 723.626 86.968ZM762.42 131.5C761.042 131.5 759.86 131.015 758.875 130.045C757.89 129.076 757.405 127.894 757.42 126.5C757.405 125.136 757.89 123.97 758.875 123C759.86 122.03 761.042 121.545 762.42 121.545C763.754 121.545 764.913 122.03 765.898 123C766.898 123.97 767.405 125.136 767.42 126.5C767.405 127.424 767.163 128.265 766.693 129.023C766.239 129.78 765.633 130.386 764.875 130.841C764.133 131.28 763.314 131.5 762.42 131.5Z" fill="#1E1E1E"/>
</svg>
