<svg width="554" height="137" viewBox="0 0 554 137" fill="none" xmlns="http://www.w3.org/2000/svg">
<path d="M29.249 45.872V52.848H82.881V45.872H29.249ZM33.345 5.552V12.336H78.465V5.552H33.345ZM33.601 30.064V36.912H78.273V30.064H33.601ZM41.409 11.824V30.704H49.921V11.824H41.409ZM61.953 11.824V30.704H70.401V11.824H61.953ZM88.124 46.256V53.168H141.756V46.256H88.124ZM110.588 35.056V49.072H119.1V35.056H110.588ZM94.14 4.272V10.992H127.292V17.328H94.268V33.968H102.716V23.984H135.74V4.272H94.14ZM94.268 30.576V37.424H137.084V30.576H94.268ZM152.439 5.872V12.592H190.007V5.872H152.439ZM146.999 45.04V51.952H200.567V45.04H146.999ZM185.527 5.872V12.912C185.527 20.912 185.527 29.36 183.351 40.752L191.863 41.456C193.975 29.296 193.975 21.232 193.975 12.912V5.872H185.527ZM248.242 0.431999V35.376H256.306V0.431999H248.242ZM241.074 14.32V21.168H250.546V14.32H241.074ZM235.57 1.52V34.928H243.506V1.52H235.57ZM216.178 37.872V59.056H256.306V37.872H216.178ZM247.986 44.528V52.336H224.562V44.528H247.986ZM208.178 26.8V33.456H212.274C221.042 33.456 226.802 33.328 233.522 32.112L232.818 25.456C226.29 26.672 220.786 26.8 212.274 26.8H208.178ZM208.114 3.952V10.544H222.386V15.408H208.178V31.92H216.434V21.616H230.578V3.952H208.114ZM283.757 4.336C274.477 4.336 267.373 10.416 267.373 18.928C267.373 27.504 274.477 33.584 283.757 33.584C293.101 33.584 300.077 27.504 300.077 18.928C300.077 10.416 293.101 4.336 283.757 4.336ZM283.757 11.632C288.301 11.632 291.757 14.32 291.757 18.928C291.757 23.6 288.301 26.288 283.757 26.288C279.213 26.288 275.757 23.6 275.757 18.928C275.757 14.32 279.213 11.632 283.757 11.632ZM305.645 0.367996V59.824H314.157V0.367996H305.645ZM265.965 47.792C276.205 47.792 290.157 47.664 303.021 45.104L302.381 38.96C289.901 40.816 275.373 40.944 264.941 40.944L265.965 47.792ZM339.499 45.936V52.848H393.131V45.936H339.499ZM361.963 32.816V47.536H370.475V32.816H361.963ZM345.067 4.784V33.904H387.243V4.784H345.067ZM378.923 11.568V27.184H353.451V11.568H378.923ZM398.374 29.68V36.464H452.006V29.68H398.374ZM404.838 18.096V24.944H446.118V18.096H404.838ZM404.838 2.608V20.592H413.35V9.328H445.606V2.608H404.838ZM404.71 51.824V58.672H446.502V51.824H404.71ZM404.71 40.944V53.552H413.158V40.944H404.71ZM514.148 0.431999V39.728H522.66V0.431999H514.148ZM503.972 16.112V22.96H515.364V16.112H503.972ZM494.628 4.912V8.624C494.628 18.608 488.612 26.224 473.764 30.64L477.348 37.296C495.204 31.664 503.588 21.104 503.588 4.912H494.628ZM476.836 4.912V11.696H500.9V4.912H476.836ZM498.468 35.376V37.36C498.468 44.08 492.516 50.928 479.972 52.848L483.236 59.568C497.7 57.072 505.7 48.24 505.7 37.36V35.376H498.468ZM499.684 35.376V37.36C499.684 48.24 507.556 57.072 522.02 59.504L525.412 52.784C512.804 50.864 506.916 44.016 506.916 37.36V35.376H499.684ZM15.6195 81.528C6.5955 81.528 0.0675001 89.72 0.0675001 102.648C0.0675001 115.704 6.5955 123.896 15.6195 123.896C24.6435 123.896 31.1715 115.704 31.1715 102.648C31.1715 89.72 24.6435 81.528 15.6195 81.528ZM15.6195 89.272C20.0355 89.272 23.0435 93.944 23.0435 102.648C23.0435 111.48 20.0355 116.216 15.6195 116.216C11.2035 116.216 8.2595 111.48 8.2595 102.648C8.2595 93.944 11.2035 89.272 15.6195 89.272ZM37.6355 77.432V136.696H46.2115V77.432H37.6355ZM44.2915 99.768V106.808H54.7875V99.768H44.2915ZM64.7025 82.616V89.4H102.015V82.616H64.7025ZM58.6865 122.744V129.72H112.255V122.744H58.6865ZM98.4305 82.616V89.464C98.4305 97.848 98.4305 106.488 95.6785 118.456L104.063 119.224C106.815 106.296 106.815 98.104 106.815 89.464V82.616H98.4305ZM100.223 98.872L62.9745 100.088L63.9985 106.936L100.223 105.144V98.872ZM158.33 77.368V136.824H166.842V77.368H158.33ZM120.698 116.088V123H125.946C136.762 123 145.466 122.68 155.066 120.952L154.234 114.104C144.826 115.704 136.442 116.088 125.946 116.088H120.698ZM120.634 82.424V89.208H139.898V98.616H120.698V118.648H129.338V105.336H148.602V82.424H120.634ZM198.901 108.28V117.688H207.413V108.28H198.901ZM203.189 78.264C190.133 78.264 181.749 82.552 181.749 89.72C181.749 96.824 190.133 101.048 203.189 101.048C216.245 101.048 224.629 96.824 224.629 89.72C224.629 82.552 216.245 78.264 203.189 78.264ZM203.189 84.728C211.253 84.728 215.861 86.392 215.861 89.72C215.861 92.984 211.253 94.584 203.189 94.584C195.061 94.584 190.517 92.984 190.517 89.72C190.517 86.392 195.061 84.728 203.189 84.728ZM182.581 115.832V136.056H223.541V115.832H182.581ZM215.221 122.552V129.336H190.965V122.552H215.221ZM176.373 104.056V110.84H229.941V104.056H176.373ZM258.928 99.256V106.104H268.656V99.256H258.928ZM278.064 77.432V136.696H286.192V77.432H278.064ZM265.968 78.328V134.008H273.968V78.328H265.968ZM248.56 81.592C240.752 81.592 235.76 89.72 235.76 103.096C235.76 116.536 240.752 124.664 248.56 124.664C256.432 124.664 261.488 116.536 261.488 103.096C261.488 89.72 256.432 81.592 248.56 81.592ZM248.56 89.592C251.888 89.592 253.744 94.072 253.744 103.096C253.744 112.184 251.888 116.6 248.56 116.6C245.36 116.6 243.504 112.184 243.504 103.096C243.504 94.072 245.36 89.592 248.56 89.592ZM324.011 95.928V102.776H339.627V95.928H324.011ZM307.883 81.976V90.552C307.883 101.816 303.403 113.272 293.291 117.944L298.603 124.792C309.739 119.224 314.795 105.464 314.795 90.552V81.976H307.883ZM309.675 81.976V90.552C309.675 105.336 314.347 118.392 325.483 123.768L330.539 116.984C320.747 112.632 316.459 101.816 316.459 90.552V81.976H309.675ZM335.403 77.368V136.824H343.851V77.368H335.403ZM407.017 77.496V121.784H415.529V77.496H407.017ZM413.097 95.544V102.52H423.401V95.544H413.097ZM368.873 83.64V90.296H403.753V83.64H368.873ZM386.345 92.408C377.769 92.408 371.753 97.08 371.753 103.864C371.753 110.648 377.769 115.256 386.345 115.256C394.857 115.256 400.873 110.648 400.873 103.864C400.873 97.08 394.857 92.408 386.345 92.408ZM386.345 98.872C390.121 98.872 392.745 100.664 392.745 103.864C392.745 107.064 390.121 108.792 386.345 108.792C382.569 108.792 379.945 107.064 379.945 103.864C379.945 100.664 382.569 98.872 386.345 98.872ZM382.057 77.368V86.904H390.569V77.368H382.057ZM377.321 128.888V135.672H417.641V128.888H377.321ZM377.321 118.456V131.832H385.833V118.456H377.321ZM471.655 93.176V99.96H486.887V93.176H471.655ZM484.711 77.496V121.208H493.223V77.496H484.711ZM453.991 128.888V135.672H494.503V128.888H453.991ZM453.991 116.92V132.792H462.567V116.92H453.991ZM446.119 81.336V111.928H474.151V81.336H465.831V90.36H454.567V81.336H446.119ZM454.567 96.824H465.831V105.208H454.567V96.824ZM526.178 99.256V106.104H535.906V99.256H526.178ZM545.314 77.432V136.696H553.442V77.432H545.314ZM533.218 78.328V134.008H541.218V78.328H533.218ZM515.81 81.592C508.002 81.592 503.01 89.72 503.01 103.096C503.01 116.536 508.002 124.664 515.81 124.664C523.682 124.664 528.738 116.536 528.738 103.096C528.738 89.72 523.682 81.592 515.81 81.592ZM515.81 89.592C519.138 89.592 520.994 94.072 520.994 103.096C520.994 112.184 519.138 116.6 515.81 116.6C512.61 116.6 510.754 112.184 510.754 103.096C510.754 94.072 512.61 89.592 515.81 89.592Z" fill="#1E1E1E"/>
</svg>
